<?xml version="1.0" encoding="UTF-8" standalone="no"?>
<!DOCTYPE svg PUBLIC "-//W3C//DTD SVG 1.1//EN" "http://www.w3.org/Graphics/SVG/1.1/DTD/svg11.dtd">
<svg width="100%" height="100%" viewBox="0 0 2680 1544" version="1.1" xmlns="http://www.w3.org/2000/svg" xmlns:xlink="http://www.w3.org/1999/xlink" xml:space="preserve" xmlns:serif="http://www.serif.com/" style="fill-rule:evenodd;clip-rule:evenodd;stroke-linejoin:round;stroke-miterlimit:2;">
    <path d="M2542.2,53.001C2542.61,61.654 2540.26,70.072 2538.22,78.39C2506.25,199.25 2408.85,240.51 2541.03,186.26C2573.36,172.507 2610.35,156.165 2619.75,119.976C2622.49,173.597 2596.34,232.436 2559.96,276.736C2540.98,301.441 2517.91,319.667 2518.26,328.698C2525.45,331.073 2588.05,312.306 2593.02,286.193C2593.41,286.039 2594.21,285.714 2594.6,285.56C2596.91,344.445 2535.94,455.6 2424.62,518.64C2417.48,523.116 2408.59,525.575 2403.57,532.799C2401.8,534.535 2403.54,536.633 2404.62,538.188C2406.41,540.765 2409.48,541.832 2412.17,543.224C2447.15,559.928 2457.02,605.343 2474.24,612.655C2394.32,660.332 2382.3,674.37 2324.51,684.409C2289.1,693.025 2322.38,700.296 2334.61,716.769C2347.56,732.7 2352.37,753.143 2361.7,771.073C2363.49,773.993 2366.19,776.2 2368.16,779.011C2360.53,781.597 2352.5,782.709 2344.85,785.214C2326.07,791.028 2309.33,801.597 2291.5,809.617C2231.74,835.697 2170.45,806.816 2161.26,806.85C2159.38,808.179 2156.76,809.906 2156.85,812.447C2159.25,818.642 2183.99,842.512 2165.53,887.601C2163.02,893.388 2164.09,899.825 2164.11,905.928C2163.81,906.073 2163.21,906.362 2162.92,906.507C2143.71,890.516 2132.47,910.063 2106.64,909.943C2097.95,910.133 2089.73,906.878 2081.3,905.332C2075.72,905.106 2071.38,910.251 2070.53,915.441C2065.99,936.683 2049.83,945.345 2057.69,968.353C2053.95,966.934 2051.15,963.751 2047.24,962.783C2036.01,960.441 2025.14,964.926 2014.46,967.693C2006.67,969.926 1998.55,968.199 1990.62,968.661C1985.19,969.71 1982.2,974.873 1979.23,979.023C1975.6,984.67 1961.71,994.967 1956.77,1003.51C1954.15,1007.72 1955.16,1012.86 1955.48,1017.52C1947.64,1013.35 1951.41,1007.63 1924.51,1013.38C1911.21,1016.34 1905.35,1005.68 1894.49,1019.1C1882.32,1034.67 1871.14,1032.2 1863.54,1057.98C1861.33,1054.83 1859.59,1050.62 1855.4,1049.76C1843.4,1047.05 1819.52,1056.98 1806.28,1048.91C1801.58,1046.32 1797.06,1041.26 1791.17,1042.97C1785.38,1045.77 1781.31,1051.11 1775.57,1054.03C1758.96,1062.6 1746.98,1060.6 1733.2,1077.86C1721.57,1042.67 1685.89,1076.85 1668.23,1052.96C1665.31,1049.24 1663,1044.34 1658.07,1042.99C1653.04,1041.74 1648.2,1044.19 1643.31,1044.96C1634.57,1046.46 1625.4,1046.16 1617.2,1049.97C1608.16,1008.64 1557.69,1027.64 1576.89,928.813C1585.33,884.718 1619.62,788.573 1599.51,752.783C1591.48,738.119 1573.53,738.934 1568.52,742.946C1562.15,748.032 1563.72,747.714 1563.78,783.715C1565.75,899.635 1530.53,911.515 1519.55,993.495C1501.59,1132.9 1634.97,1185.89 1674.47,1274.82C1687.95,1305.13 1665.64,1314.58 1671.9,1338.09C1659.37,1337.53 1653.02,1350.8 1636.69,1350.38C1631.02,1350.43 1625.25,1353.07 1622.46,1358.18C1611.41,1378.66 1581.86,1383.67 1588.15,1408.84C1587.64,1408.88 1586.61,1408.96 1586.09,1409C1577.37,1401.15 1570.27,1400.64 1545.22,1405.13C1538.26,1406.33 1531.32,1403.2 1524.46,1404.79C1517.92,1406.91 1517.22,1414.53 1513.59,1419.37C1506.99,1429.63 1494.14,1432.85 1486.43,1441.99C1480.11,1449.11 1477.64,1456.59 1485.99,1461.28C1485.95,1461.82 1485.86,1462.9 1485.81,1463.44C1481.55,1461.62 1477.39,1459.25 1472.7,1458.81C1453.38,1457.49 1443.53,1466.31 1430.26,1464.94C1412.26,1462.7 1410.96,1448.85 1399.4,1451.65C1395.09,1454.18 1392.2,1458.53 1387.82,1461C1378.02,1466.74 1366.21,1467 1355.95,1471.62C1341.84,1477.33 1342.52,1486.1 1340.12,1490.07C1331.69,1462.92 1304.65,1471.63 1288.98,1458.6C1285.58,1455.66 1282.2,1452.13 1277.53,1451.49C1266.51,1453.58 1264.98,1463.6 1249.55,1464.95C1236.27,1466.02 1223.32,1456.81 1206.34,1458.94C1202.05,1459.58 1198.32,1462.06 1194.05,1462.74C1195.62,1459.9 1199.4,1458.18 1199.39,1454.63C1200.18,1439.68 1172.98,1430.62 1165.37,1417.43C1161.56,1411.68 1162.55,1401.76 1149.97,1403.97C1126.19,1408.12 1110.4,1394.41 1093.74,1409.06C1093.45,1408.74 1092.89,1408.1 1092.61,1407.77C1093.15,1404.06 1094.24,1400.06 1092.36,1396.54C1086.61,1383.92 1074.27,1376.55 1064.44,1367.48C1057.47,1360.99 1056.06,1348.62 1047.02,1350.55C1032,1353.84 1019.89,1336.79 1008.2,1338.27C1008.88,1334.73 1010.65,1331.26 1010.06,1327.58C1006.38,1304.3 985.332,1297.08 1028.23,1238.8C1095.37,1149.45 1186.08,1110.81 1155.65,963.95C1144.88,919.054 1123.05,899.497 1117.57,817.46C1116.12,805.949 1117.1,765.98 1116.97,749.422C1117.64,741.368 1093.15,733.751 1081.67,751.402C1045.29,808.229 1145.45,960.532 1090.42,1014.37C1062.69,1039.85 1068.36,1037.55 1062.75,1050.07C1053.53,1045.19 1042.69,1046.89 1032.93,1043.97C1028.91,1042.98 1024.53,1040.49 1020.54,1042.96C1013.14,1045.39 1012.59,1062.38 992.725,1061.93C974.14,1062.64 956.554,1050.26 946.793,1077.74C935.609,1061.45 917.145,1061.13 903.285,1053.2C894.37,1048.32 891.605,1036.04 878.511,1045.71C871.648,1051.48 862.191,1053.62 853.42,1052.42C820.941,1046.12 821.962,1049.86 817.109,1057.92C812.825,1048.29 816.605,1045.66 794.695,1027.89C782.308,1018 782.905,1008.4 767.697,1012.94C753.12,1017.66 737.253,1002.18 725.536,1017.61C724.135,1013.71 726.621,1009.45 724.496,1005.64C718.691,993.152 705.129,986.804 698.339,974.978C696.476,971.262 693.068,968.522 688.918,967.88C684.081,968.45 679.298,969.996 674.379,969.444C663.408,967.928 641.379,958.885 631.467,963.314C628.42,964.625 625.879,966.822 622.968,968.386C627.881,943.021 618.816,942.903 611.476,921.406C609.921,917.328 609.189,912.898 606.892,909.146C599.547,898.558 586.288,913.943 564.957,909.056C547.998,906.394 527.74,891.114 517.018,907.32C516.683,907.094 516.014,906.633 515.68,906.398C521.831,882.408 495.86,871.941 514.622,826.262C516.222,822.229 519.288,818.45 518.573,813.857C518.763,812.275 517.398,811.226 516.15,810.593C504,808.359 455.652,830.466 405.07,815.62C378.135,807.871 355.495,789.535 328.053,783.206C322.773,781.678 317.113,781.217 312.221,778.55C327.697,762.743 329.992,730.728 350.784,711.371C357.077,704.734 366.761,701.678 371.182,693.279C371.712,682.23 338.457,686.383 299.608,667.854C282.214,659.912 210.214,614.908 206.199,612.149C224.554,605.616 229.109,564.126 268.216,543.008C271.073,541.371 274.355,539.852 275.91,536.76C278.253,529.765 266.981,524.999 260.006,521C140.666,455.122 79.416,333.7 85.836,285.19C88.555,289.194 90.742,299.126 105.447,308.291C118.737,317.036 148.881,329.851 163.304,330.434C163.557,329.331 163.747,328.219 163.865,327.107C154.816,308.786 58.435,236.724 59.965,120.217C60.191,120.28 60.625,120.407 60.851,120.47C69.922,158.121 114.337,175.804 148.537,190.072C202.941,213.628 203.027,211.423 206.657,210.117C207.249,198.15 201.536,199.207 184.008,170.044C165.154,140.045 140.713,90.378 137.688,54.694C138.122,54.622 138.99,54.486 139.424,54.423C172.491,124.566 333.564,159.223 477.814,219.723C528.158,240.917 578.004,263.213 627.644,286.007C684.231,311.389 700.412,337.817 703.838,321.676C702.426,312.801 679.946,225.615 681.207,216.716C827.777,293.323 770.936,334.206 838.907,388.676C929.374,459.818 1115.19,527.706 1116.18,496.246C1128.26,416.127 1107.16,385.176 1103.07,365.226C1132.96,372.424 1150.62,396.43 1212.4,403.336C1248.69,405.002 1271.88,401.053 1289.23,399.783C1301.44,397.867 1367.07,397.708 1374.4,398.825C1393.77,399.209 1429.84,404.075 1438.48,403.599C1538.45,401.723 1538.06,372.659 1577.38,365.407C1574.73,375.196 1556.21,417.523 1560.43,468.007C1565.09,504.189 1558.99,511.262 1605.1,500.692C1721.35,470.715 1819.6,409.775 1850.79,380.492C1877,356.049 1883.49,319.596 1901.62,292.182C1928.44,250.255 1996.53,217.896 1999.67,216.956C1969.12,375.876 1951.38,331.126 2061.55,281.875C2145.64,243.703 2253.72,195.283 2332.65,170.295C2502.3,114.658 2524.05,81.185 2542.22,53.025L2542.2,53.001Z" style="fill-rule:nonzero;"/>
    <g transform="matrix(1,0,0,1,-12.745,18.8329)">
        <g transform="matrix(1.48452,0,0,1.48452,953.466,441.275)">
            <path d="M320.728,52.367L320.914,53.889C320.921,53.944 321.655,56.629 321.876,57.058C322.458,58.221 323.143,59.176 323.537,60.428C324.104,61.099 324.859,62.047 325.329,63.037C326.519,63.957 327.246,64.559 328.526,65.472C329.156,65.922 332.027,67.175 332.74,67.375C339.708,69.368 346.032,67.569 350.931,62.635C352.232,61.328 355.311,57.114 355.381,55.017C355.505,53.46 356.107,51.474 356.301,49.558C356.55,47.094 356.218,46.063 356.626,44.347C356.709,43.994 356.744,44.825 356.764,43.731L356.675,44.389C353.879,44.361 355.048,44.866 352.896,45.399L351.893,45.454L351.056,44.015C349.368,43.946 348.357,44.562 346.095,44.126C343.002,43.531 344.026,43.385 341.735,43.627L341.721,42.112C342.656,41.399 342.005,42.306 342.78,41.275C342.718,41.233 342.642,41.178 342.593,41.15L340.843,40.5L340.829,44.167C338.781,44.216 337.826,44.43 336.082,43.669C334.345,42.915 332.74,44.285 333.058,41.655C334.241,40.874 334.401,41.33 335.653,41.033C336.691,40.784 335.473,41.06 336.49,40.714C339.327,39.766 340.171,40.099 340.981,39.946C341.784,39.787 341.154,39.919 341.791,39.593C342.967,38.985 345.202,38.556 346.634,38.41C347.534,37.884 347.928,38.057 348.821,37.981L352.225,37.407C352.301,37.386 352.371,37.358 352.44,37.338C354.267,36.694 353.782,36.41 353.699,34.978C349.921,34.881 350.738,34.584 347.506,35.283C347.112,35.373 346.316,35.615 346.115,35.677C343.168,36.625 345.313,36.113 343.79,35.891C343.223,35.802 343.562,35.788 343.002,35.891C342.171,36.03 342.725,35.857 342.199,36.251C342.732,35.981 341.777,36.217 341.687,35.414C342.268,35.082 342.054,35.407 342.254,34.604C342.358,34.182 342.317,33.442 342.317,32.992C339.48,33.089 341.126,33.061 339.791,34.196C340.068,34.985 339.957,34.535 340.317,35.006C341.472,36.493 340.012,34.231 340.704,35.407C339.985,35.774 340.552,35.691 339.397,35.629C339.41,35.172 339.493,34.715 339.514,34.39C339.556,33.684 339.639,34.674 339.514,33.767L339.41,33.407C339.071,32.037 339.258,32.826 339.493,31.366C337.93,31.643 338.324,32.217 337.542,31.629C338.725,31.608 338.054,31.214 338.815,30.771C339.417,30.425 339.978,30.584 340.905,30.563L340.69,30.038C340.192,28.847 340.282,29 339.5,28.501C339.244,28.335 339.486,28.543 338.988,28.197C338.947,28.169 338.878,28.114 338.836,28.086C336.553,26.384 336.317,27.124 334.657,28.501L333.812,29.062C333.847,29.145 333.923,29.235 333.965,29.283L334.996,30.508C335.646,31.145 334.899,30.716 335.93,31.069C336.31,31.2 336.124,30.986 336.698,31.228C335.238,31.968 332.484,31.553 330.491,31.788C329.474,33.684 328.962,32.729 328.955,34.03C328.948,35.158 329.308,34.66 329.73,35.303C328.069,35.995 328.872,35.11 327.557,36.203C326.748,36.874 326.367,36.867 325.495,37.234L326.111,38.542C326.319,38.915 326.45,38.431 326.436,39.254C325.329,39.96 323.848,39.801 322.541,40.161C321.447,40.465 320.742,41.344 320.555,42.34C319.6,42.347 319.814,42.237 319.053,42.202C318.936,43.676 318.624,44.416 318.631,45.793C319.814,45.517 319.095,45.537 320.029,45.212C320.894,49.08 320.479,48.077 320.728,52.367Z"/>
            <path d="M343.521,18.641L343.244,18.953C344.012,19.901 342.095,19.769 344.967,19.79L343.071,20.343C342.711,20.468 342.49,20.586 342.406,20.627C342.261,21.25 342.019,19.873 342.372,21.381L342.683,21.464C340.621,21.783 340.4,22.17 339.521,22.772C338.165,23.706 335.169,22.758 337.12,25.062C337.466,25.464 337.847,25.568 338.241,25.651C338.013,26.142 338.296,25.616 337.936,26.204L337.383,25.983C336.919,25.893 336.767,25.934 336.269,25.927C335.916,26.751 335.902,26.619 335.21,27.055C333.812,27.934 334.463,27.519 332.92,27.754C332.878,27.823 332.837,27.927 332.809,27.976C332.788,28.024 332.74,28.128 332.705,28.19L332.401,29.733C332.435,29.788 332.477,29.858 332.512,29.913C333.314,31.269 332.948,30.743 333.771,31.145L330.553,31.297C329.01,30.909 327.184,31.85 327.274,33.926C325.454,34.189 326.305,34.515 325.938,35.283L324.409,34.985C324.367,36.154 324.727,35.324 324.803,36.805C323.945,36.653 324.264,36.936 323.897,36.348C322.741,36.189 323.426,36.217 323.274,36.528C323.98,37.296 323.516,37.248 323.98,37.954C324.52,38.784 324.437,38.133 325.094,39.005L321.766,38.666L321.399,39.254C320.389,40.624 320.223,40.59 318.423,40.804C318.327,41.669 318.389,41.386 318.527,41.974C317.953,41.96 317.552,41.593 317.074,41.289L317.081,43.288C315.379,43.378 316.251,43.032 315.877,44.098C314.86,43.365 315.566,43.026 314.133,43.787L314.099,45.254C313.559,46.554 312.66,47.738 312.722,49.454C313.192,49.44 314.805,49.288 314.839,49.281C315.753,49.108 315.683,49.011 315.926,48.021C317.607,48.554 317.552,48.824 319.904,48.949C319.973,49.613 320.063,49.973 320.195,50.609L320.728,52.367C320.479,48.077 320.894,49.08 320.029,45.212C319.095,45.537 319.814,45.517 318.631,45.793C318.624,44.416 318.936,43.676 319.053,42.202C319.814,42.237 319.6,42.347 320.555,42.34C320.742,41.344 321.447,40.465 322.541,40.161C323.848,39.801 325.329,39.96 326.436,39.254C326.45,38.431 326.319,38.915 326.111,38.542L325.495,37.234C326.367,36.867 326.748,36.874 327.557,36.203C328.872,35.11 328.069,35.995 329.73,35.303C329.308,34.66 328.948,35.158 328.955,34.03C328.962,32.729 329.474,33.684 330.491,31.788C332.484,31.553 335.238,31.968 336.698,31.228C336.124,30.986 336.31,31.2 335.93,31.069C334.899,30.716 335.646,31.145 334.996,30.508L333.965,29.283C333.923,29.235 333.847,29.145 333.812,29.062L334.657,28.501C336.317,27.124 336.553,26.384 338.836,28.086C338.878,28.114 338.947,28.169 338.988,28.197C339.486,28.543 339.244,28.335 339.5,28.501C340.282,29 340.192,28.847 340.69,30.038L340.905,30.563C339.978,30.584 339.417,30.425 338.815,30.771C338.054,31.214 338.725,31.608 337.542,31.629C338.324,32.217 337.93,31.643 339.493,31.366C339.258,32.826 339.071,32.037 339.41,33.407L339.514,33.767C339.639,34.674 339.556,33.684 339.514,34.39C339.493,34.715 339.41,35.172 339.397,35.629C340.552,35.691 339.985,35.774 340.704,35.407C340.012,34.231 341.472,36.493 340.317,35.006C339.957,34.535 340.068,34.985 339.791,34.196C341.126,33.061 339.48,33.089 342.317,32.992C342.317,33.442 342.358,34.182 342.254,34.604C342.054,35.407 342.268,35.082 341.687,35.414C341.777,36.217 342.732,35.981 342.199,36.251C342.725,35.857 342.171,36.03 343.002,35.891C343.562,35.788 343.223,35.802 343.79,35.891C345.313,36.113 343.168,36.625 346.115,35.677C346.316,35.615 347.112,35.373 347.506,35.283C350.738,34.584 349.921,34.881 353.699,34.978C353.782,36.41 354.267,36.694 352.44,37.338C352.371,37.358 352.301,37.386 352.225,37.407L348.821,37.981C347.928,38.057 347.534,37.884 346.634,38.41C348.696,38.265 347.942,37.995 348.544,39.365L348.855,39.088C350.35,37.829 350.53,38.5 351.686,38.659L352.62,38.722C352.696,38.728 352.924,38.722 353.007,38.763C353.028,36.32 352.979,38.078 353.568,37.372C354.903,37.476 355.512,37.22 355.519,39.047C355.512,39.033 354.405,38.652 355.886,38.659C356.875,38.659 356.82,39.282 356.834,39.538C356.951,41.87 357.048,39.87 356.398,40.645C356.052,41.019 355.948,41.074 356.446,41.738C357.221,42.783 356.813,41.565 357.449,42.603L357.408,43.849L358.868,43.51C358.896,43.51 358.972,43.531 358.999,43.531C359.027,43.531 359.11,43.551 359.138,43.544C360.086,43.496 359.491,43.475 359.788,43.358C361.428,42.735 361.843,42.942 362.238,41.849C362.459,41.226 362.535,39.808 362.259,38.922C361.933,37.898 361.373,38.756 362.051,37.49C362.535,36.577 363.186,36.833 363.892,37.089C364.009,37.428 364.023,37.352 363.995,37.884C363.947,38.701 363.94,38.203 363.788,38.874C363.601,39.711 363.629,40.071 363.601,40.984C364.957,41.275 364.397,41.406 365.926,40.562C366.313,40.355 366.023,40.576 366.417,40.182C366.86,39.739 366.21,39.919 366.936,39.628C368.292,41.856 367.593,40.555 369.801,41.489C373.143,42.901 372.755,41.662 373.828,42.763C377.779,46.831 376.651,56.269 374.873,61.175C374.257,62.878 374.278,63.646 373.198,64.524L368.209,72.959C366.846,74.232 367.178,74.053 366.113,75.575C364.459,77.941 361.705,80.335 359.131,81.456C358.335,81.796 358.529,81.553 357.892,82.162C356.848,83.172 358.889,81.048 357.512,82.619C356.633,83.622 355.948,84.065 354.529,84.667C353.505,85.103 352.993,85.401 351.762,85.788C346.835,87.338 342.932,87.435 337.646,86.861C336.684,86.757 336.767,86.695 336.054,86.494L334.235,85.65C333.84,85.795 333.895,85.871 333.19,85.747C331.847,85.504 332.47,85.587 332.083,85.235C330.491,85.38 322.831,82.314 321.752,81.436C320.928,81.159 315.247,77.768 314.313,76.668C313.995,76.301 314.154,76.509 314.057,76.281L313.199,76.253L319.365,81C321.35,82.328 322.229,82.64 324.111,83.228L327.903,84.785C332.463,86.473 330.187,85.47 334.131,86.549C341.59,88.584 349.963,88.417 357.242,85.594C357.574,85.463 357.858,85.318 358.003,85.241C360.965,83.705 366.562,80.951 368.521,78.536C370.251,76.412 369.87,77.215 371.205,75.886L372.465,74.219L371.143,74.385L373.869,70.115C374.139,69.555 373.959,69.873 374.153,69.306C374.845,67.251 376.284,65.77 376.658,63.597C376.651,63.576 375.724,62.532 375.419,61.646C376.229,60.006 374.375,63.147 375.835,61.085C376.45,60.22 376.34,60.29 376.354,58.871C376.374,56.283 377.433,57.058 377.357,48.52C377.343,46.921 376.9,46.741 376.665,45.717C376.291,44.077 376.9,42.167 376.25,41.143L376.015,40.874C374.541,39.185 374.222,38.237 373.171,37.559C373.987,36.646 372.202,37.054 374.278,36.881C373.973,36.874 373.627,36.639 373.212,36.161C372.534,35.379 372.589,36.438 372.631,34.515C372.596,34.57 373.157,34.812 372.16,34.847L371.731,34.784C371.655,34.771 371.545,34.708 371.475,34.687C371.406,34.667 371.289,34.632 371.212,34.577C371.302,30.854 372.202,33.601 377.288,33.643L377.412,33.138C377.419,33.096 377.468,32.992 377.481,32.958C377.495,32.923 377.53,32.819 377.565,32.757C378.111,33.006 378.298,33.054 379.149,33.082C379.308,33.67 378.858,33.601 379.44,34.12C379.889,34.515 379.696,33.65 380.471,35.054L381.301,34.21C381.363,34.265 381.419,34.286 381.453,34.404C381.481,34.535 381.702,34.722 381.758,34.777C381.806,34.826 381.868,34.895 381.917,34.944C381.972,34.992 382.035,35.047 382.09,35.096C382.145,35.137 382.207,35.179 382.263,35.22L383.197,35.719C384.456,36.258 384.657,35.096 386.678,36.639C388.414,37.96 388.663,37.089 390.774,38.196C392.829,39.275 390.559,39.206 392.739,39.6C393.016,38.459 392.22,38.908 393.348,38.486C392.642,37.566 391.161,38.846 390.4,35.975C392.372,35.31 393.521,36.314 394.663,35.414C394.241,34.826 393.625,34.805 393.32,34.487C389.736,35.006 392.213,34.369 388.726,33.913C388.677,33.975 388.608,34.002 388.587,34.12L387.978,34.798C387.778,34.362 387.619,34.21 387.778,33.567C388.248,31.698 388.684,33.836 388.151,32.868L384.823,31.85L383.986,32.065C384.816,32.715 385.038,32.598 385.39,33.497C383.702,33.414 382.007,32.965 380.803,31.691C380.076,31.719 376.367,30.19 373.205,30.418C370.306,30.619 367.718,28.162 366.908,28.155L365.04,27.194C365.324,28.079 365.151,27.823 365.995,28.287C367.517,29.131 369.019,29.795 369.635,31.442L364.293,30.01C363.642,29.712 363.947,29.858 363.573,29.387C363.075,29.207 363.096,29.283 362.611,28.882C361.989,28.363 361.359,27.235 359.719,27.041L359.145,27.041C360.107,28.169 359.975,27.138 360.259,28.993L358.031,28.439C358.529,28.847 358.474,29.249 358.591,30.114C356.917,29.934 357.588,30.57 356.917,29.276C355.754,31.463 353.879,29.643 353.872,29.636L352.115,28.868C351.513,28.557 351.001,28.356 350.149,28.294C350.156,29.097 351.056,31.809 349.305,31.927C348.233,31.996 349.146,32.107 348.544,31.408C348.468,31.463 348.205,31.678 348.15,31.712C348.108,31.74 347.887,31.885 347.43,32.044L345.23,30.903C343.832,29.519 344.136,29.519 343.936,28.716C343.922,28.633 343.908,28.557 343.887,28.474C343.5,26.986 343.514,27.685 343.105,26.765C343.479,25.92 343.943,26.689 343.59,25.125C343.202,23.381 343.437,25.229 342.815,24.101C343.527,23.762 343.534,23.81 344.192,23.25C344.884,22.668 344.15,23.187 344.787,22.744C347.478,20.876 346.697,23.111 347.707,21.146C349.091,21.264 348.939,21.361 349.9,20.897C351.167,20.288 350.565,20.876 351.485,20.523C351.25,18.482 350.461,19.444 351.208,17.409C352.198,17.866 352.502,18.268 352.647,19.651L353.146,18.703C353.173,18.62 353.152,18.295 353.291,17.901C354.737,18.081 354.114,18.434 355.339,17.998L356.951,17.437C358.605,16.925 357.283,16.655 358.612,16.551C360.086,16.434 358.508,17.686 359.837,16.6C360.39,15.866 361.532,15.32 362.445,15.645L363.587,16.192C363.649,16.219 363.719,16.254 363.781,16.282L365.414,16.468C368.147,16.06 367.434,16.745 368.957,17.043C370.064,17.25 370.963,16.496 371.987,16.925C372.396,16.42 372.333,17.008 372.541,15.707C373.793,15.839 372.942,16.295 374.209,15.88C373.226,14.579 372.043,15.022 371.109,14.704L369.476,13.929L370.687,13.029C370.05,12.151 370.237,12.891 370.202,11.895L369.213,13.071C368.881,14.095 369.005,13.541 369.116,14.538C368.258,14.275 367.78,13.922 367.718,13.874C366.521,12.884 365.379,12.773 364.189,12.621C363.283,12.504 362.584,12.012 361.615,12.531C360.743,13.002 360.487,13.403 359.705,13.645C360.584,14.164 360.245,14.261 360.259,15.597C359.276,15.597 358.058,15.313 357.692,15.396L356.785,15.804C355.581,16.434 355.339,16.538 353.948,15.936C352.883,15.479 354.744,15.687 353.222,15.783C352.163,15.846 351.589,16.385 350.599,16.877L348.821,17.61C346.503,18.593 346.157,18.399 345.569,19.299C345.271,19.229 344.953,19.084 344.863,19.049C344.794,19.029 344.718,19.001 344.641,18.973L343.521,18.641Z" style="fill:rgb(19,12,10);"/>
            <path d="M354.619,64.455C353.014,65.023 354.087,64.421 353.644,65.23C353.526,65.452 353.665,65.313 353.277,65.846L353.478,68.51C351.319,68.635 353.761,68.123 351.215,67.867L350.814,69.873C350.814,69.839 350.807,69.991 350.779,70.039C350.371,69.762 349.444,68.787 349.105,68.392L346.62,69.832C344.33,70.697 345.839,70.627 344.289,70.669C342.178,70.731 343.659,70.51 342.69,71.146C340.58,72.544 340.829,71.389 338.94,71.804C337.95,72.018 338.054,72.281 337.189,72.254C336.615,72.226 336.331,71.831 335.425,72.385C334.677,72.191 335.183,71.921 334.311,71.568C334.269,71.638 334.235,71.741 334.207,71.797C333.591,72.939 334.055,72.51 333.473,72.772C333.28,72.606 332.844,72.122 332.83,72.108C332.795,72.087 332.726,72.039 332.691,72.025L332.249,71.859C332.214,71.838 332.131,71.811 332.103,71.79C332.069,71.769 332,71.728 331.972,71.7C331.391,71.209 331.854,71.167 331.245,70.627C330.65,71.721 331.439,71.077 330.422,71.984C329.688,72.24 329.003,71.395 328.45,70.351C327.73,71.568 328.789,71.181 327.626,71.617L327.606,69.548C324.409,70.115 326.554,72.157 324.582,71.333C324.547,71.319 324.464,71.285 324.43,71.271C324.402,71.257 324.319,71.216 324.291,71.195C323.689,70.738 324.084,71.188 324.042,69.728C321.6,70.752 321.876,68.503 321.496,67.915C321.094,67.59 320.935,68.164 321.081,67.389C320.229,69.071 320.015,68.434 319.157,68.904C319.358,69.769 319.413,69.077 319.524,70.344C320.34,70.039 320.195,69.949 321.254,70.039C321.641,70.89 321.288,70.517 321.475,71.015C322.146,70.738 321.606,70.641 322.554,70.8C323.772,71.008 323.094,71.015 323.364,71.25C323.274,71.908 323.523,71.389 322.79,71.963L321.932,72.475C321.219,72.897 320.714,73.25 320.077,73.534L318.963,73.077C318.929,72.98 318.818,73.022 318.742,72.994C318.486,72.101 318.735,71.707 318.749,71.679L317.642,71.492C317.642,72.883 317.78,72.593 317.455,73.817C316.154,73.333 317.448,74.066 316.894,73.333C316.507,72.821 317.053,71.908 315.144,71.721C315.095,72.724 316.009,73.81 314.978,74.648C314.071,75.381 314.908,74.959 314.313,74.731C315.69,74.862 315.047,75.056 315.441,75.817C316.528,74.8 317.538,76.018 318.327,76.135L320.209,76.301L320.229,79.408C319.524,79.346 319.849,79.173 320.098,79.561C320.665,80.439 321.316,80.252 321.752,81.436C322.831,82.314 330.491,85.38 332.083,85.235C332.332,85.186 333.003,85.103 333.1,85.068C334.497,84.674 332.103,84.937 336.283,84.127C338.85,83.622 338.933,84.404 341.064,84.3C340.96,82.743 340.511,82.889 339.742,81.692C340.234,81.159 340.324,80.979 341.286,80.744L341.846,82.045C342.932,82.141 343.763,81.906 344.911,81.955C347.043,82.038 344.718,83.166 347.43,82.882C348.094,81.913 347.575,82.038 347.984,81.27C349.852,81.948 350.094,81.36 350.98,80.882C351.423,80.64 353.858,80.813 357.076,79.595C358.543,79.042 358.377,78.647 359.027,77.402L360.252,77.492C360.888,77.319 360.674,77.236 360.861,77.056C362.66,75.333 361.74,76.896 362.231,75.464C362.48,74.745 361.906,75.208 364.065,73.568L364.736,73.16C365.504,72.627 365.345,72.537 365.926,71.472C366.424,70.558 366.41,70.994 366.514,69.673C365.615,69.299 365.877,69.576 366.071,68.545C366.417,66.759 368.348,66.275 367.337,64.594C364.473,64.158 368.541,64.753 365.324,64.919L364.196,65.05C365.165,65.763 363.234,64.061 362.902,63.915C361.262,63.196 361.809,64.268 360.667,64.607C361.055,63.812 361.096,63.846 360.992,62.649C361.823,63.127 360.432,63.189 362.494,63.127C363.276,62.282 362.674,61.971 364.189,61.895C363.781,63.057 364.148,61.867 363.677,62.615C363.366,63.113 363.255,62.504 363.4,63.3C363.705,64.974 365.815,63.037 368.348,63.03C367.912,60.317 368.5,61.369 368.804,59.231C366.334,57.979 367.102,56.456 366.68,55.764C365.061,55.75 364.715,56.505 364.57,57.591C364.404,57.515 363.871,57.044 363.179,57.46C363.303,58.809 363.698,58.712 364.023,59.695C363.407,60.345 363.58,59.999 362.895,60.573C361.234,61.957 363.165,61.099 361.096,61.881C359.788,62.372 360.383,62.635 359.982,63.59C358.176,63.659 358.342,63.777 357.802,64.483C357.235,65.223 357.131,65.417 357.083,66.573C356.031,66.739 354.64,67.756 354.28,66.393C354.896,66.033 355.858,66.247 355.989,65.95C356.045,65.839 356.169,65.888 356.246,65.832C356.086,65.472 356.993,65.922 355.768,65.362C355.72,65.341 355.637,65.313 355.588,65.299C355.491,65.272 354.882,65.445 354.772,65.465L354.619,64.455Z" style="fill:rgb(247,110,3);"/>
            <path d="M372.465,74.219C373.005,73.921 372.873,74.004 373.309,73.319L375.973,69.333C375.828,67.86 376.831,66.746 377.447,65.417C378.077,64.068 377.682,64.241 378.803,62.276C380.111,59.985 378.492,61.314 380.713,58.055C381.336,57.148 381.668,55.232 381.751,54.111L383.432,53.993C383.515,53.093 383.564,53.626 383.266,52.837C383.038,52.242 382.401,52.616 383.017,52.561C383.017,51.087 382.823,50.533 382.789,49.371L384.346,49.198C384.339,48.063 384.38,48.291 384.595,47.447L384.768,45.427L386.996,47.35L386.082,47.821C388.636,48.886 388.366,47.419 390.123,47.267C390.539,47.378 391.279,49.087 393.749,49.025C395.016,47.343 392.781,48.43 395.14,47.454C394.497,46.769 394.621,46.464 392.614,46.035C393.189,47.329 391.75,45.025 392.891,46.333C392.926,46.381 393.12,46.582 393.168,46.644C393.618,47.226 393.299,45.883 393.645,47.412C392.559,47.925 393.092,47.807 392.289,47.226C391.666,46.776 391.41,46.485 391.154,46.022C391.957,44.672 391.556,45.897 392.635,44.901C391.376,43.247 390.047,43.434 389.694,42.479L389.729,41.925C389.743,41.891 389.805,41.815 389.833,41.787C390.04,41.531 390.158,41.572 390.4,41.552C389.023,40.265 390.324,40.278 390.4,40.161C392.31,40.95 391.708,41.316 392.559,41.69C393.957,42.292 393.957,40.977 393.742,40.251C393.244,39.6 393.715,40.002 392.739,39.6C390.559,39.206 392.829,39.275 390.774,38.196C388.663,37.089 388.414,37.96 386.678,36.639C384.657,35.096 384.456,36.258 383.197,35.719L382.263,35.22C382.207,35.179 382.145,35.137 382.09,35.096C382.035,35.047 381.972,34.992 381.917,34.944C381.868,34.895 381.806,34.826 381.758,34.777C381.702,34.722 381.481,34.535 381.453,34.404C381.419,34.286 381.363,34.265 381.301,34.21L380.471,35.054C379.696,33.65 379.889,34.515 379.44,34.12C378.858,33.601 379.308,33.67 379.149,33.082C378.298,33.054 378.111,33.006 377.565,32.757C377.53,32.819 377.495,32.923 377.481,32.958C377.468,32.992 377.419,33.096 377.412,33.138L377.288,33.643C372.202,33.601 371.302,30.854 371.212,34.577C371.289,34.632 371.406,34.667 371.475,34.687C371.545,34.708 371.655,34.771 371.731,34.784L372.16,34.847C373.157,34.812 372.596,34.57 372.631,34.515C372.589,36.438 372.534,35.379 373.212,36.161C373.627,36.639 373.973,36.874 374.278,36.881C372.202,37.054 373.987,36.646 373.171,37.559C374.222,38.237 374.541,39.185 376.015,40.874L376.25,41.143C376.9,42.167 376.291,44.077 376.665,45.717C376.9,46.741 377.343,46.921 377.357,48.52C377.433,57.058 376.374,56.283 376.354,58.871C376.34,60.29 376.45,60.22 375.835,61.085C374.375,63.147 376.229,60.006 375.419,61.646C375.724,62.532 376.651,63.576 376.658,63.597C376.284,65.77 374.845,67.251 374.153,69.306C373.959,69.873 374.139,69.555 373.869,70.115L371.143,74.385L372.465,74.219Z" style="fill:rgb(5,1,1);"/>
            <path d="M299.132,79.567C298.724,77.768 297.312,77.921 296.641,77.9C296.835,74.911 295.098,76.931 295.119,73.125C295.132,71.409 294.856,73.063 295.61,71.638L293.361,70.856L293.582,69.79C293.569,69.285 293.209,67.7 293.361,66.808C293.382,66.676 293.548,65.486 294.288,65.549C294.323,65.549 294.399,65.583 294.44,65.59C294.489,65.597 294.565,65.645 294.613,65.652C294.662,65.666 294.745,65.708 294.8,65.715C295.561,65.853 294.856,66.005 295.935,65.673C296.246,64.656 296.094,65.161 295.831,64.158C295.319,63.86 295.257,64.172 294.71,63.881L295.693,62.656C296.419,62.02 296.198,62.449 297.063,61.853C297.111,61.77 297.146,61.542 297.16,61.584C297.174,61.625 297.229,61.397 297.243,61.328L297.783,59.978C297.817,59.937 297.879,59.888 297.914,59.84C298.509,59.023 298.336,59.362 298.488,57.868C299.782,57.37 300.094,56.941 301.263,57.377C301.277,56.173 301.395,54.706 302.619,54.38C303.872,54.041 303.436,54.083 304.01,55.169L304.197,55.598C304.218,55.681 304.245,55.75 304.259,55.834C304.522,57.19 303.692,57.141 302.972,59.805C302.64,61.023 302.709,62.366 302.682,63.881C302.308,64.165 302.522,64.04 301.976,64.261L299.409,64.96C299.478,65.95 301.104,68.731 301.54,69.617C302.419,71.409 302.156,72.606 302.287,73.907C302.446,75.506 303.941,79.415 303.339,80.066C303.277,80.1 303.173,80.066 303.138,80.149C303.104,80.225 302.986,80.211 302.938,80.218L302.017,80.163C301.332,79.893 301.242,79.381 301.042,79.014C299.609,79.159 300.004,79.886 299.132,79.567ZM311.262,45.565L311.276,47.565C310.196,47.094 310.916,46.817 310.037,46.208L309.186,49.433C309.02,49.385 307.816,49.004 307.698,48.907C307.138,48.45 307.297,47.828 306.965,47.357C305.117,49.087 306.473,49.191 303.055,50.298C302.19,52.173 303.83,49.523 302.1,51.993C301.491,52.865 301.651,53.342 300.737,54.034C299.263,55.148 298.765,55.418 297.644,57.439C297.354,60.269 297.935,58.518 295.956,61.224C294.856,62.725 293.956,62.995 293.195,64.794C292.634,66.116 292.766,65.638 291.562,66.393C291.624,66.434 291.728,66.413 291.756,66.51C291.776,66.6 291.901,66.6 291.936,66.628C292.821,67.479 292.171,66.621 292.773,69.119C292.794,69.188 292.821,69.264 292.835,69.327L292.994,70.012C293.126,71.188 292.821,70.524 293.423,71.935L294.115,74.018C295.229,76.018 294.966,76.495 296.551,78.184C297.34,79.021 296.987,79.021 297.997,79.325C298.232,79.394 299.028,79.54 299.132,79.567C299.077,82.342 301.907,83.034 302.82,83.934L303.989,85.082C305.38,85.442 304.806,85.38 305.941,85.013C306.003,84.992 306.072,84.958 306.134,84.937L307.449,84.252C306.349,83.608 306.217,83.463 304.522,83.38C304.896,82.847 304.647,83.269 304.882,82.93C304.91,82.896 304.965,82.82 305,82.778L306.128,80.903C304.785,80.197 304.827,78.786 306.128,78.107C305.934,76.225 305.242,76.08 305.401,74.039C305.553,74.599 305.629,75.187 306.038,75.616C306.224,75.81 306.335,75.831 306.563,75.907C307.034,76.073 306.633,76.045 307.546,76.149C307.138,74.565 307.719,74.489 307.013,73.091C306.937,72.939 306.619,72.426 306.487,72.177L305.975,69.915C304.695,69.327 302.661,67.714 303.616,66.171C304.328,66.441 304.619,66.919 305.11,67.417C305.449,67.749 305.484,67.735 305.837,68.102C306.245,68.524 306.204,68.365 306.19,68.621C306.183,67.209 304.342,63.95 305.297,61.182C305.892,59.445 306.3,60.428 306.813,58.29C307.228,56.567 307.823,55.577 309.221,55.155C312.147,54.284 310.196,53.986 312.583,53.612C313.967,53.391 312.452,53.751 313.836,53.405C316.444,52.747 317.399,52.561 319.358,53.391L320.914,53.889L320.728,52.367L320.195,50.609C320.063,49.973 319.973,49.613 319.904,48.949C317.552,48.824 317.607,48.554 315.926,48.021C315.683,49.011 315.753,49.108 314.839,49.281C314.805,49.288 313.192,49.44 312.722,49.454C312.66,47.738 313.559,46.554 314.099,45.254C312.355,45.309 313.476,45.69 312.826,44.686L312.992,44.319C312.092,45.018 312.736,45.06 312.576,47.191C311.248,46.34 312.307,45.717 311.262,45.565Z" style="fill:rgb(35,12,10);"/>
            <path d="M355.872,54.941L355.381,55.017C355.311,57.114 352.232,61.328 350.931,62.635C346.032,67.569 339.708,69.368 332.74,67.375C332.027,67.175 329.156,65.922 328.526,65.472C327.246,64.559 326.519,63.957 325.329,63.037C324.533,62.878 324.305,62.961 323.191,61.584L321.731,59.971C319.932,57.972 320.015,60.656 317.379,58.498C316.361,57.667 318.029,58.255 316.631,58.013L314.14,59.106C313.621,59.459 313.075,59.75 312.21,59.812C310.916,59.895 311.781,59.681 311.179,59.764C309.885,59.951 311.725,59.466 310.265,60.276C310.148,60.338 310.369,60.47 309.449,60.532L308.805,63.597L308.086,63.846C307.567,63.985 307.864,63.86 307.802,63.881L309.193,71.568C309.989,72.51 310.418,73.07 311.193,73.88C312.085,74.821 312.867,74.966 313.199,76.253L314.057,76.281C313.801,74.994 314.597,76.253 313.4,74.987C312.507,74.046 312.95,75.049 312.41,74.094C311.386,73.478 311.103,72.648 310.584,71.499L310.418,71.119C310.39,71.056 310.355,70.98 310.328,70.918C309.525,68.967 310.162,69.673 310.072,68.33C309.947,66.545 308.916,67.341 309.947,65.452L310.777,63.992C311.359,63.127 311.234,64.552 311.428,62.753C312.244,63.514 312.064,63.182 312.549,64.434C313.123,64.4 313.455,64.469 313.94,64.13C313.947,65.286 315.144,65.777 316.015,65.971C317.033,66.199 315.116,66.247 317.392,66.261C317.669,65.209 318.652,64.649 317.801,63.32L318.472,62.635C318.929,62.352 318.181,62.331 319.302,62.705C319.102,62.808 318.936,63.092 319.129,63.576C319.704,65.009 319.897,64.151 320.077,64.199L322.042,65.334C324.132,66.13 322.423,64.345 325.281,66.739C326.319,67.604 325.627,66.676 326.097,67.673C326.568,67.389 326.194,67.258 326.914,67.368L327.91,67.666C330.401,67.95 328.194,66.815 332.09,68.206C332.173,68.24 332.435,68.316 332.519,68.351C332.858,68.475 333.141,68.593 333.148,68.6C335.75,69.631 334.096,67.839 336.082,68.676L339.881,69.285C345.029,69.264 341.521,68.337 344.635,68.78C344.745,67.265 344.759,68.04 345.195,67.507C346.565,67.507 346.378,67.638 347.409,67.119L347.762,66.925C350.087,65.659 350.911,64.774 351.568,64.116L354.087,61.625C355.727,58.276 355.581,60.788 356.432,58.92C356.474,58.85 356.502,58.65 356.508,58.691C356.564,58.878 356.46,57.854 357.394,56.56L358.999,54.83C360.612,53.993 359.352,55.114 360.266,53.654C362.805,53.446 361.892,52.934 362.494,54.138L364.251,53.654C364.618,53.46 364.611,53.439 364.826,53.273C364.722,52.27 364.279,52.734 364.528,51.82C364.549,51.751 364.777,51.287 364.819,51.045L364.826,50.713C364.743,49.288 364.819,50.512 364.729,50.485C365.967,50.339 365.781,50.575 366.659,49.938C367.178,50.547 367.164,50.817 367.801,51.315C369.642,52.754 368.735,51.107 369.316,54.332C369.441,55.024 369.316,54.387 369.489,55.003C369.856,56.242 369.856,55.868 369.745,57.453C370.59,57.764 369.953,57.259 370.389,58.041C370.52,58.283 370.541,58.608 370.59,58.857C371.067,58.145 370.68,58.29 371.745,58.214C371.932,60.193 371.621,61.75 372.347,63.134C372.34,62.033 372.707,60.933 372.866,59.819C373.046,58.615 372.707,57.709 372.61,56.352L373.406,56.505C373.316,56.539 373.247,56.311 373.219,56.359L371.953,51.966C371.531,49.509 369.579,51.917 369.476,48.81C367.801,48.63 368.209,47.689 367.144,47.516C366.694,47.44 364.75,47.682 363.629,47.537C362.798,47.433 363.207,47.267 362.272,47.585C361.269,47.925 362.494,47.468 361.705,47.835C358.806,49.17 360.459,49.357 358.591,49.371C358.591,50.623 358.674,50.609 358.231,51.467C357.616,52.657 358.135,51.052 357.643,52.997L357.373,53.875C357.353,53.965 357.187,54.643 357.117,54.796C357.02,55.017 357.221,55.827 356.246,55.328L355.872,54.941Z" style="fill:rgb(207,50,5);"/>
            <path d="M312.41,74.094C311.552,73.326 311.089,71.977 310.819,70.87C310.487,69.479 310.127,67.832 310.072,66.144C317.579,66.469 315.317,65.839 316.175,68.434L317.434,66.621C317.469,66.559 317.496,66.483 317.531,66.42L317.918,65.749C318.167,66.254 318.167,66.268 318.34,66.912C318.465,66.24 317.842,65.791 321.371,65.991L321.496,67.915C321.876,68.503 321.6,70.752 324.042,69.728C324.084,71.188 323.689,70.738 324.291,71.195C324.319,71.216 324.402,71.257 324.43,71.271C324.464,71.285 324.547,71.319 324.582,71.333C326.554,72.157 324.409,70.115 327.606,69.548L327.626,71.617C328.789,71.181 327.73,71.568 328.45,70.351C329.003,71.395 329.688,72.24 330.422,71.984C331.439,71.077 330.65,71.721 331.245,70.627C331.854,71.167 331.391,71.209 331.972,71.7C332,71.728 332.069,71.769 332.103,71.79C332.131,71.811 332.214,71.838 332.249,71.859L332.691,72.025C332.726,72.039 332.795,72.087 332.83,72.108C332.844,72.122 333.28,72.606 333.473,72.772C334.055,72.51 333.591,72.939 334.207,71.797C334.235,71.741 334.269,71.638 334.311,71.568C335.183,71.921 334.677,72.191 335.425,72.385C336.331,71.831 336.615,72.226 337.189,72.254C338.054,72.281 337.95,72.018 338.94,71.804C340.829,71.389 340.58,72.544 342.69,71.146C343.659,70.51 342.178,70.731 344.289,70.669C345.839,70.627 344.33,70.697 346.62,69.832L349.105,68.392C349.444,68.787 350.371,69.762 350.779,70.039C350.807,69.991 350.814,69.839 350.814,69.873L351.215,67.867C353.761,68.123 351.319,68.635 353.478,68.51L353.277,65.846C353.665,65.313 353.526,65.452 353.644,65.23C354.087,64.421 353.014,65.023 354.619,64.455L356.246,64.607C356.197,63.293 355.969,64.123 356.073,62.76C356.668,62.469 356.197,62.767 356.744,62.511C356.806,62.476 356.993,62.372 357.062,62.345L357.629,62.103C359.062,61.542 358.543,61.764 359.152,60.739L360.826,60.809C360.183,60.207 360.722,60.663 360.48,59.964C359.761,57.902 360.28,58.207 360.695,56.256C362.044,56.034 362.584,56.449 363.615,56.103C363.954,52.436 365.206,54.187 366.493,53.716L366.535,51.502C367.683,51.876 366.812,51.191 367.552,52.145L368.95,55.91C369.012,56.567 368.867,56.615 368.687,57.377L369.745,57.453C369.856,55.868 369.856,56.242 369.489,55.003C369.316,54.387 369.441,55.024 369.316,54.332C368.735,51.107 369.642,52.754 367.801,51.315C367.164,50.817 367.178,50.547 366.659,49.938C365.781,50.575 365.967,50.339 364.729,50.485C364.819,50.512 364.743,49.288 364.826,50.713L364.819,51.045C364.777,51.287 364.549,51.751 364.528,51.82C364.279,52.734 364.722,52.27 364.826,53.273C364.611,53.439 364.618,53.46 364.251,53.654L362.494,54.138C361.892,52.934 362.805,53.446 360.266,53.654C359.352,55.114 360.612,53.993 358.999,54.83L357.394,56.56C356.46,57.854 356.564,58.878 356.508,58.691C356.502,58.65 356.474,58.85 356.432,58.92C355.581,60.788 355.727,58.276 354.087,61.625L351.568,64.116C350.911,64.774 350.087,65.659 347.762,66.925L347.409,67.119C346.378,67.638 346.565,67.507 345.195,67.507C344.759,68.04 344.745,67.265 344.635,68.78C341.521,68.337 345.029,69.264 339.881,69.285L336.082,68.676C334.096,67.839 335.75,69.631 333.148,68.6C333.141,68.593 332.858,68.475 332.519,68.351C332.435,68.316 332.173,68.24 332.09,68.206C328.194,66.815 330.401,67.95 327.91,67.666L326.914,67.368C326.194,67.258 326.568,67.389 326.097,67.673C325.627,66.676 326.319,67.604 325.281,66.739C322.423,64.345 324.132,66.13 322.042,65.334L320.077,64.199C319.897,64.151 319.704,65.009 319.129,63.576C318.936,63.092 319.102,62.808 319.302,62.705C318.181,62.331 318.929,62.352 318.472,62.635L317.801,63.32C318.652,64.649 317.669,65.209 317.392,66.261C315.116,66.247 317.033,66.199 316.015,65.971C315.144,65.777 313.947,65.286 313.94,64.13C313.455,64.469 313.123,64.4 312.549,64.434C312.064,63.182 312.244,63.514 311.428,62.753C311.234,64.552 311.359,63.127 310.777,63.992L309.947,65.452C308.916,67.341 309.947,66.545 310.072,68.33C310.162,69.673 309.525,68.967 310.328,70.918C310.355,70.98 310.39,71.056 310.418,71.119L310.584,71.499C311.103,72.648 311.386,73.478 312.41,74.094Z" style="fill:rgb(212,79,8);"/>
            <path d="M366.514,69.673C366.41,70.994 366.424,70.558 365.926,71.472C365.345,72.537 365.504,72.627 364.736,73.16L364.065,73.568C361.906,75.208 362.48,74.745 362.231,75.464C361.74,76.896 362.66,75.333 360.861,77.056C360.674,77.236 360.888,77.319 360.252,77.492L359.027,77.402C358.377,78.647 358.543,79.042 357.076,79.595C353.858,80.813 351.423,80.64 350.98,80.882C350.094,81.36 349.852,81.948 347.984,81.27C347.575,82.038 348.094,81.913 347.43,82.882C344.718,83.166 347.043,82.038 344.911,81.955C343.763,81.906 342.932,82.141 341.846,82.045L341.286,80.744C340.324,80.979 340.234,81.159 339.742,81.692C340.511,82.889 340.96,82.743 341.064,84.3C338.933,84.404 338.85,83.622 336.283,84.127C332.103,84.937 334.497,84.674 333.1,85.068C333.003,85.103 332.332,85.186 332.083,85.235C332.47,85.587 331.847,85.504 333.19,85.747C333.895,85.871 333.84,85.795 334.235,85.65C336.144,85.657 336.393,86.079 337.708,86.293C338.635,86.438 340.497,86.397 341.424,86.452C347.845,86.861 347.562,85.892 352.53,84.259C354.488,83.622 352.142,84.383 354.654,82.494C355.962,81.512 354.958,81.567 357.519,80.654C358.93,80.149 358.19,80.301 359.498,79.574C360.024,79.277 360.307,79.152 360.764,78.875C361.574,78.384 362.293,77.941 362.978,77.201C363.898,76.211 363.684,76.094 364.846,75.167C365.788,74.412 366.189,74.17 366.888,73.298C367.524,72.51 367.946,72.074 368.611,71.133C372.278,65.984 369.261,69.79 371.309,66.047L372.029,64.774C372.486,64.068 372.603,64.621 372.347,63.134C371.621,61.75 371.932,60.193 371.745,58.214C370.68,58.29 371.067,58.145 370.59,58.857C370.541,58.608 370.52,58.283 370.389,58.041C369.953,57.259 370.59,57.764 369.745,57.453C369.718,58.933 370.112,58.221 369.704,59.881C369.192,61.985 369.939,62.905 369.054,64.843C368.486,66.088 369.24,65.818 368.818,66.282C368.265,67.846 367.919,65.915 367.441,67.963C367.324,68.462 367.863,68.254 366.514,69.673Z" style="fill:rgb(212,79,8);"/>
            <path d="M355.872,54.941L356.246,55.328C357.221,55.827 357.02,55.017 357.117,54.796C357.187,54.643 357.353,53.965 357.373,53.875L357.643,52.997C358.135,51.052 357.616,52.657 358.231,51.467C358.674,50.609 358.591,50.623 358.591,49.371C360.459,49.357 358.806,49.17 361.705,47.835C362.494,47.468 361.269,47.925 362.272,47.585C363.207,47.267 362.798,47.433 363.629,47.537C364.75,47.682 366.694,47.44 367.144,47.516C368.209,47.689 367.801,48.63 369.476,48.81C369.579,51.917 371.531,49.509 371.953,51.966L373.219,56.359C373.247,56.311 373.316,56.539 373.406,56.505L372.61,56.352C372.707,57.709 373.046,58.615 372.866,59.819C372.707,60.933 372.34,62.033 372.347,63.134C372.603,64.621 372.486,64.068 372.029,64.774L371.309,66.047C369.261,69.79 372.278,65.984 368.611,71.133C367.946,72.074 367.524,72.51 366.888,73.298C366.189,74.17 365.788,74.412 364.846,75.167C363.684,76.094 363.898,76.211 362.978,77.201C362.293,77.941 361.574,78.384 360.764,78.875C360.307,79.152 360.024,79.277 359.498,79.574C358.19,80.301 358.93,80.149 357.519,80.654C354.958,81.567 355.962,81.512 354.654,82.494C352.142,84.383 354.488,83.622 352.53,84.259C347.562,85.892 347.845,86.861 341.424,86.452C340.497,86.397 338.635,86.438 337.708,86.293C336.393,86.079 336.144,85.657 334.235,85.65L336.054,86.494C336.767,86.695 336.684,86.757 337.646,86.861C342.932,87.435 346.835,87.338 351.762,85.788C352.993,85.401 353.505,85.103 354.529,84.667C355.948,84.065 356.633,83.622 357.512,82.619C358.889,81.048 356.848,83.172 357.892,82.162C358.529,81.553 358.335,81.796 359.131,81.456C361.705,80.335 364.459,77.941 366.113,75.575C367.178,74.053 366.846,74.232 368.209,72.959L373.198,64.524C374.471,58.352 374.077,64.4 375.122,55.827C375.502,52.727 374.022,49.468 373.849,47.496C372.956,47.447 373.115,47.53 372.451,47.246C371.856,46.997 371.994,46.977 371.918,46.935L369.13,45.523C369.054,45.489 368.797,45.406 368.714,45.378L364.334,44.852C362.861,45.316 364.487,45.198 362.771,45.994C360.273,47.156 361.407,45.613 357.491,47.696C357.325,51.536 357.29,49.364 356.792,51.557C356.259,53.91 356.937,53.308 355.872,54.941Z" style="fill:rgb(162,36,10);"/>
            <path d="M357.449,42.603L356.764,43.731C356.744,44.825 356.709,43.994 356.626,44.347C356.218,46.063 356.55,47.094 356.301,49.558C356.107,51.474 355.505,53.46 355.381,55.017L355.872,54.941C356.937,53.308 356.259,53.91 356.792,51.557C357.29,49.364 357.325,51.536 357.491,47.696C361.407,45.613 360.273,47.156 362.771,45.994C364.487,45.198 362.861,45.316 364.334,44.852L368.714,45.378C368.797,45.406 369.054,45.489 369.13,45.523L371.918,46.935C371.994,46.977 371.856,46.997 372.451,47.246C373.115,47.53 372.956,47.447 373.849,47.496C374.022,49.468 375.502,52.727 375.122,55.827C374.077,64.4 374.471,58.352 373.198,64.524C374.278,63.646 374.257,62.878 374.873,61.175C376.651,56.269 377.779,46.831 373.828,42.763C372.755,41.662 373.143,42.901 369.801,41.489C367.593,40.555 368.292,41.856 366.936,39.628C366.21,39.919 366.86,39.739 366.417,40.182C366.023,40.576 366.313,40.355 365.926,40.562C364.397,41.406 364.957,41.275 363.601,40.984C363.629,40.071 363.601,39.711 363.788,38.874C363.94,38.203 363.947,38.701 363.995,37.884C364.023,37.352 364.009,37.428 363.892,37.089C363.186,36.833 362.535,36.577 362.051,37.49C361.373,38.756 361.933,37.898 362.259,38.922C362.535,39.808 362.459,41.226 362.238,41.849C361.843,42.942 361.428,42.735 359.788,43.358C359.491,43.475 360.086,43.496 359.138,43.544C359.11,43.551 359.027,43.531 358.999,43.531C358.972,43.531 358.896,43.51 358.868,43.51L357.408,43.849L357.449,42.603Z" style="fill:rgb(81,18,14);"/>
            <path d="M312.41,74.094C312.95,75.049 312.507,74.046 313.4,74.987C314.597,76.253 313.801,74.994 314.057,76.281C314.154,76.509 313.995,76.301 314.313,76.668C315.247,77.768 320.928,81.159 321.752,81.436C321.316,80.252 320.665,80.439 320.098,79.561C319.849,79.173 319.524,79.346 320.229,79.408L320.209,76.301L318.327,76.135C317.538,76.018 316.528,74.8 315.441,75.817C315.047,75.056 315.69,74.862 314.313,74.731C314.908,74.959 314.071,75.381 314.978,74.648C316.009,73.81 315.095,72.724 315.144,71.721C317.053,71.908 316.507,72.821 316.894,73.333C317.448,74.066 316.154,73.333 317.455,73.817C317.78,72.593 317.642,72.883 317.642,71.492L318.749,71.679C318.735,71.707 318.486,72.101 318.742,72.994C318.818,73.022 318.929,72.98 318.963,73.077L320.077,73.534C320.714,73.25 321.219,72.897 321.932,72.475L322.79,71.963C323.523,71.389 323.274,71.908 323.364,71.25C323.094,71.015 323.772,71.008 322.554,70.8C321.606,70.641 322.146,70.738 321.475,71.015C321.288,70.517 321.641,70.89 321.254,70.039C320.195,69.949 320.34,70.039 319.524,70.344C319.413,69.077 319.358,69.769 319.157,68.904C320.015,68.434 320.229,69.071 321.081,67.389C320.935,68.164 321.094,67.59 321.496,67.915L321.371,65.991C317.842,65.791 318.465,66.24 318.34,66.912C318.167,66.268 318.167,66.254 317.918,65.749L317.531,66.42C317.496,66.483 317.469,66.559 317.434,66.621L316.175,68.434C315.317,65.839 317.579,66.469 310.072,66.144C310.127,67.832 310.487,69.479 310.819,70.87C311.089,71.977 311.552,73.326 312.41,74.094Z" style="fill:rgb(238,81,3);"/>
            <path d="M306.487,72.177C306.128,71.084 306.093,71.541 306.28,70.115C307.94,70.51 306.723,70.793 309.352,73.215C310.141,73.935 311.857,75.353 312.182,76.301L313.199,76.253C312.867,74.966 312.085,74.821 311.193,73.88C310.418,73.07 309.989,72.51 309.193,71.568C307.082,70.378 307.124,67.078 306.861,65.292C306.702,64.192 306.688,64.704 306.598,64.227C306.584,64.185 306.563,64.102 306.557,64.061L306.563,63.722C306.57,63.673 306.598,63.597 306.612,63.549C306.847,62.705 307.636,61.964 307.892,61.231C308.501,59.494 307.788,59.224 309.477,57.653C312.348,57.764 312.244,58.338 313.767,56.726C315.026,55.398 315.31,55.536 317.565,55.557C318.071,56.47 317.289,55.515 317.815,56.207C317.884,56.297 318.423,56.692 318.555,56.74C319.448,57.1 319.98,56.865 320.665,57.446C321.849,58.442 322.665,60.013 323.537,60.428C323.143,59.176 322.458,58.221 321.876,57.058C321.655,56.629 320.921,53.944 320.914,53.889L319.358,53.391C317.399,52.561 316.444,52.747 313.836,53.405C312.452,53.751 313.967,53.391 312.583,53.612C310.196,53.986 312.147,54.284 309.221,55.155C307.823,55.577 307.228,56.567 306.813,58.29C306.3,60.428 305.892,59.445 305.297,61.182C304.342,63.95 306.183,67.209 306.19,68.621C306.204,68.365 306.245,68.524 305.837,68.102C305.484,67.735 305.449,67.749 305.11,67.417C304.619,66.919 304.328,66.441 303.616,66.171C302.661,67.714 304.695,69.327 305.975,69.915L306.487,72.177Z" style="fill:rgb(81,18,14);"/>
            <path d="M344.503,41.988C345.403,41.088 345.479,40.638 347.084,40.936C349.741,41.427 349.762,42.071 349.838,43.953L346.593,43.994C346.531,43.932 346.475,43.842 346.434,43.794C345.5,42.756 346.081,43.136 343.534,42.908C343.984,42.057 343.597,42.901 344.503,41.988ZM346.634,38.41C345.202,38.556 342.967,38.985 341.791,39.593C341.154,39.919 341.784,39.787 340.981,39.946C340.171,40.099 339.327,39.766 336.49,40.714C335.473,41.06 336.691,40.784 335.653,41.033C334.401,41.33 334.241,40.874 333.058,41.655C332.74,44.285 334.345,42.915 336.082,43.669C337.826,44.43 338.781,44.216 340.829,44.167L340.843,40.5L342.593,41.15C342.642,41.178 342.718,41.233 342.78,41.275C342.005,42.306 342.656,41.399 341.721,42.112L341.735,43.627C344.026,43.385 343.002,43.531 346.095,44.126C348.357,44.562 349.368,43.946 351.056,44.015L351.893,45.454L352.896,45.399L351.672,43.69C351.167,42.811 351.381,42.41 351.36,41.247C352.246,40.694 351.789,41.206 352.336,40.341C354.626,40.5 352.343,40.666 354.121,40.86C355.754,39.33 356.114,38.908 356.398,40.645C357.048,39.87 356.951,41.87 356.834,39.538C356.82,39.282 356.875,38.659 355.886,38.659C354.405,38.652 355.512,39.033 355.519,39.047C355.512,37.22 354.903,37.476 353.568,37.372C352.979,38.078 353.028,36.32 353.007,38.763C352.924,38.722 352.696,38.728 352.62,38.722L351.686,38.659C350.53,38.5 350.35,37.829 348.855,39.088L348.544,39.365C347.942,37.995 348.696,38.265 346.634,38.41Z" style="fill:rgb(35,31,33);"/>
            <path d="M354.619,64.455L354.772,65.465C354.882,65.445 355.491,65.272 355.588,65.299C355.637,65.313 355.72,65.341 355.768,65.362C356.993,65.922 356.086,65.472 356.246,65.832C356.169,65.888 356.045,65.839 355.989,65.95C355.858,66.247 354.896,66.033 354.28,66.393C354.64,67.756 356.031,66.739 357.083,66.573C357.131,65.417 357.235,65.223 357.802,64.483C358.342,63.777 358.176,63.659 359.982,63.59C360.383,62.635 359.788,62.372 361.096,61.881C363.165,61.099 361.234,61.957 362.895,60.573C363.58,59.999 363.407,60.345 364.023,59.695C363.698,58.712 363.303,58.809 363.179,57.46C363.871,57.044 364.404,57.515 364.57,57.591C364.715,56.505 365.061,55.75 366.68,55.764C367.102,56.456 366.334,57.979 368.804,59.231C368.5,61.369 367.912,60.317 368.348,63.03C365.815,63.037 363.705,64.974 363.4,63.3C363.255,62.504 363.366,63.113 363.677,62.615C364.148,61.867 363.781,63.057 364.189,61.895C362.674,61.971 363.276,62.282 362.494,63.127C360.432,63.189 361.823,63.127 360.992,62.649C361.096,63.846 361.055,63.812 360.667,64.607C361.809,64.268 361.262,63.196 362.902,63.915C363.234,64.061 365.165,65.763 364.196,65.05L365.324,64.919C368.541,64.753 364.473,64.158 367.337,64.594C368.348,66.275 366.417,66.759 366.071,68.545C365.877,69.576 365.615,69.299 366.514,69.673C367.863,68.254 367.324,68.462 367.441,67.963C367.919,65.915 368.265,67.846 368.818,66.282C369.24,65.818 368.486,66.088 369.054,64.843C369.939,62.905 369.192,61.985 369.704,59.881C370.112,58.221 369.718,58.933 369.745,57.453L368.687,57.377C368.867,56.615 369.012,56.567 368.95,55.91L367.552,52.145C366.812,51.191 367.683,51.876 366.535,51.502L366.493,53.716C365.206,54.187 363.954,52.436 363.615,56.103C362.584,56.449 362.044,56.034 360.695,56.256C360.28,58.207 359.761,57.902 360.48,59.964C360.722,60.663 360.183,60.207 360.826,60.809L359.152,60.739C358.543,61.764 359.062,61.542 357.629,62.103L357.062,62.345C356.993,62.372 356.806,62.476 356.744,62.511C356.197,62.767 356.668,62.469 356.073,62.76C355.969,64.123 356.197,63.293 356.246,64.607L354.619,64.455Z" style="fill:rgb(238,81,3);"/>
            <path d="M309.193,71.568L307.802,63.881C307.864,63.86 307.567,63.985 308.086,63.846L308.805,63.597L309.449,60.532C310.369,60.47 310.148,60.338 310.265,60.276C311.725,59.466 309.885,59.951 311.179,59.764C311.781,59.681 310.916,59.895 312.21,59.812C313.075,59.75 313.621,59.459 314.14,59.106L316.631,58.013C318.029,58.255 316.361,57.667 317.379,58.498C320.015,60.656 319.932,57.972 321.731,59.971L323.191,61.584C324.305,62.961 324.533,62.878 325.329,63.037C324.859,62.047 324.104,61.099 323.537,60.428C322.665,60.013 321.849,58.442 320.665,57.446C319.98,56.865 319.448,57.1 318.555,56.74C318.423,56.692 317.884,56.297 317.815,56.207C317.289,55.515 318.071,56.47 317.565,55.557C315.31,55.536 315.026,55.398 313.767,56.726C312.244,58.338 312.348,57.764 309.477,57.653C307.788,59.224 308.501,59.494 307.892,61.231C307.636,61.964 306.847,62.705 306.612,63.549C306.598,63.597 306.57,63.673 306.563,63.722L306.557,64.061C306.563,64.102 306.584,64.185 306.598,64.227C306.688,64.704 306.702,64.192 306.861,65.292C307.124,67.078 307.082,70.378 309.193,71.568Z" style="fill:rgb(162,36,10);"/>
            <path d="M352.896,45.399C355.048,44.866 353.879,44.361 356.675,44.389L356.764,43.731L357.449,42.603C356.813,41.565 357.221,42.783 356.446,41.738C355.948,41.074 356.052,41.019 356.398,40.645C356.114,38.908 355.754,39.33 354.121,40.86C352.343,40.666 354.626,40.5 352.336,40.341C351.789,41.206 352.246,40.694 351.36,41.247C351.381,42.41 351.167,42.811 351.672,43.69L352.896,45.399Z" style="fill:rgb(88,85,87);"/>
            <path d="M343.534,42.908C346.081,43.136 345.5,42.756 346.434,43.794C346.475,43.842 346.531,43.932 346.593,43.994L349.838,43.953C349.762,42.071 349.741,41.427 347.084,40.936C345.479,40.638 345.403,41.088 344.503,41.988C343.597,42.901 343.984,42.057 343.534,42.908Z" style="fill:rgb(75,69,67);"/>
        </g>
        <g transform="matrix(-1.48452,0,0,1.48452,1751.92,441.275)">
            <path d="M320.728,52.367L320.914,53.889C320.921,53.944 321.655,56.629 321.876,57.058C322.458,58.221 323.143,59.176 323.537,60.428C324.104,61.099 324.859,62.047 325.329,63.037C326.519,63.957 327.246,64.559 328.526,65.472C329.156,65.922 332.027,67.175 332.74,67.375C339.708,69.368 346.032,67.569 350.931,62.635C352.232,61.328 355.311,57.114 355.381,55.017C355.505,53.46 356.107,51.474 356.301,49.558C356.55,47.094 356.218,46.063 356.626,44.347C356.709,43.994 356.744,44.825 356.764,43.731L356.675,44.389C353.879,44.361 355.048,44.866 352.896,45.399L351.893,45.454L351.056,44.015C349.368,43.946 348.357,44.562 346.095,44.126C343.002,43.531 344.026,43.385 341.735,43.627L341.721,42.112C342.656,41.399 342.005,42.306 342.78,41.275C342.718,41.233 342.642,41.178 342.593,41.15L340.843,40.5L340.829,44.167C338.781,44.216 337.826,44.43 336.082,43.669C334.345,42.915 332.74,44.285 333.058,41.655C334.241,40.874 334.401,41.33 335.653,41.033C336.691,40.784 335.473,41.06 336.49,40.714C339.327,39.766 340.171,40.099 340.981,39.946C341.784,39.787 341.154,39.919 341.791,39.593C342.967,38.985 345.202,38.556 346.634,38.41C347.534,37.884 347.928,38.057 348.821,37.981L352.225,37.407C352.301,37.386 352.371,37.358 352.44,37.338C354.267,36.694 353.782,36.41 353.699,34.978C349.921,34.881 350.738,34.584 347.506,35.283C347.112,35.373 346.316,35.615 346.115,35.677C343.168,36.625 345.313,36.113 343.79,35.891C343.223,35.802 343.562,35.788 343.002,35.891C342.171,36.03 342.725,35.857 342.199,36.251C342.732,35.981 341.777,36.217 341.687,35.414C342.268,35.082 342.054,35.407 342.254,34.604C342.358,34.182 342.317,33.442 342.317,32.992C339.48,33.089 341.126,33.061 339.791,34.196C340.068,34.985 339.957,34.535 340.317,35.006C341.472,36.493 340.012,34.231 340.704,35.407C339.985,35.774 340.552,35.691 339.397,35.629C339.41,35.172 339.493,34.715 339.514,34.39C339.556,33.684 339.639,34.674 339.514,33.767L339.41,33.407C339.071,32.037 339.258,32.826 339.493,31.366C337.93,31.643 338.324,32.217 337.542,31.629C338.725,31.608 338.054,31.214 338.815,30.771C339.417,30.425 339.978,30.584 340.905,30.563L340.69,30.038C340.192,28.847 340.282,29 339.5,28.501C339.244,28.335 339.486,28.543 338.988,28.197C338.947,28.169 338.878,28.114 338.836,28.086C336.553,26.384 336.317,27.124 334.657,28.501L333.812,29.062C333.847,29.145 333.923,29.235 333.965,29.283L334.996,30.508C335.646,31.145 334.899,30.716 335.93,31.069C336.31,31.2 336.124,30.986 336.698,31.228C335.238,31.968 332.484,31.553 330.491,31.788C329.474,33.684 328.962,32.729 328.955,34.03C328.948,35.158 329.308,34.66 329.73,35.303C328.069,35.995 328.872,35.11 327.557,36.203C326.748,36.874 326.367,36.867 325.495,37.234L326.111,38.542C326.319,38.915 326.45,38.431 326.436,39.254C325.329,39.96 323.848,39.801 322.541,40.161C321.447,40.465 320.742,41.344 320.555,42.34C319.6,42.347 319.814,42.237 319.053,42.202C318.936,43.676 318.624,44.416 318.631,45.793C319.814,45.517 319.095,45.537 320.029,45.212C320.894,49.08 320.479,48.077 320.728,52.367Z"/>
            <path d="M343.521,18.641L343.244,18.953C344.012,19.901 342.095,19.769 344.967,19.79L343.071,20.343C342.711,20.468 342.49,20.586 342.406,20.627C342.261,21.25 342.019,19.873 342.372,21.381L342.683,21.464C340.621,21.783 340.4,22.17 339.521,22.772C338.165,23.706 335.169,22.758 337.12,25.062C337.466,25.464 337.847,25.568 338.241,25.651C338.013,26.142 338.296,25.616 337.936,26.204L337.383,25.983C336.919,25.893 336.767,25.934 336.269,25.927C335.916,26.751 335.902,26.619 335.21,27.055C333.812,27.934 334.463,27.519 332.92,27.754C332.878,27.823 332.837,27.927 332.809,27.976C332.788,28.024 332.74,28.128 332.705,28.19L332.401,29.733C332.435,29.788 332.477,29.858 332.512,29.913C333.314,31.269 332.948,30.743 333.771,31.145L330.553,31.297C329.01,30.909 327.184,31.85 327.274,33.926C325.454,34.189 326.305,34.515 325.938,35.283L324.409,34.985C324.367,36.154 324.727,35.324 324.803,36.805C323.945,36.653 324.264,36.936 323.897,36.348C322.741,36.189 323.426,36.217 323.274,36.528C323.98,37.296 323.516,37.248 323.98,37.954C324.52,38.784 324.437,38.133 325.094,39.005L321.766,38.666L321.399,39.254C320.389,40.624 320.223,40.59 318.423,40.804C318.327,41.669 318.389,41.386 318.527,41.974C317.953,41.96 317.552,41.593 317.074,41.289L317.081,43.288C315.379,43.378 316.251,43.032 315.877,44.098C314.86,43.365 315.566,43.026 314.133,43.787L314.099,45.254C313.559,46.554 312.66,47.738 312.722,49.454C313.192,49.44 314.805,49.288 314.839,49.281C315.753,49.108 315.683,49.011 315.926,48.021C317.607,48.554 317.552,48.824 319.904,48.949C319.973,49.613 320.063,49.973 320.195,50.609L320.728,52.367C320.479,48.077 320.894,49.08 320.029,45.212C319.095,45.537 319.814,45.517 318.631,45.793C318.624,44.416 318.936,43.676 319.053,42.202C319.814,42.237 319.6,42.347 320.555,42.34C320.742,41.344 321.447,40.465 322.541,40.161C323.848,39.801 325.329,39.96 326.436,39.254C326.45,38.431 326.319,38.915 326.111,38.542L325.495,37.234C326.367,36.867 326.748,36.874 327.557,36.203C328.872,35.11 328.069,35.995 329.73,35.303C329.308,34.66 328.948,35.158 328.955,34.03C328.962,32.729 329.474,33.684 330.491,31.788C332.484,31.553 335.238,31.968 336.698,31.228C336.124,30.986 336.31,31.2 335.93,31.069C334.899,30.716 335.646,31.145 334.996,30.508L333.965,29.283C333.923,29.235 333.847,29.145 333.812,29.062L334.657,28.501C336.317,27.124 336.553,26.384 338.836,28.086C338.878,28.114 338.947,28.169 338.988,28.197C339.486,28.543 339.244,28.335 339.5,28.501C340.282,29 340.192,28.847 340.69,30.038L340.905,30.563C339.978,30.584 339.417,30.425 338.815,30.771C338.054,31.214 338.725,31.608 337.542,31.629C338.324,32.217 337.93,31.643 339.493,31.366C339.258,32.826 339.071,32.037 339.41,33.407L339.514,33.767C339.639,34.674 339.556,33.684 339.514,34.39C339.493,34.715 339.41,35.172 339.397,35.629C340.552,35.691 339.985,35.774 340.704,35.407C340.012,34.231 341.472,36.493 340.317,35.006C339.957,34.535 340.068,34.985 339.791,34.196C341.126,33.061 339.48,33.089 342.317,32.992C342.317,33.442 342.358,34.182 342.254,34.604C342.054,35.407 342.268,35.082 341.687,35.414C341.777,36.217 342.732,35.981 342.199,36.251C342.725,35.857 342.171,36.03 343.002,35.891C343.562,35.788 343.223,35.802 343.79,35.891C345.313,36.113 343.168,36.625 346.115,35.677C346.316,35.615 347.112,35.373 347.506,35.283C350.738,34.584 349.921,34.881 353.699,34.978C353.782,36.41 354.267,36.694 352.44,37.338C352.371,37.358 352.301,37.386 352.225,37.407L348.821,37.981C347.928,38.057 347.534,37.884 346.634,38.41C348.696,38.265 347.942,37.995 348.544,39.365L348.855,39.088C350.35,37.829 350.53,38.5 351.686,38.659L352.62,38.722C352.696,38.728 352.924,38.722 353.007,38.763C353.028,36.32 352.979,38.078 353.568,37.372C354.903,37.476 355.512,37.22 355.519,39.047C355.512,39.033 354.405,38.652 355.886,38.659C356.875,38.659 356.82,39.282 356.834,39.538C356.951,41.87 357.048,39.87 356.398,40.645C356.052,41.019 355.948,41.074 356.446,41.738C357.221,42.783 356.813,41.565 357.449,42.603L357.408,43.849L358.868,43.51C358.896,43.51 358.972,43.531 358.999,43.531C359.027,43.531 359.11,43.551 359.138,43.544C360.086,43.496 359.491,43.475 359.788,43.358C361.428,42.735 361.843,42.942 362.238,41.849C362.459,41.226 362.535,39.808 362.259,38.922C361.933,37.898 361.373,38.756 362.051,37.49C362.535,36.577 363.186,36.833 363.892,37.089C364.009,37.428 364.023,37.352 363.995,37.884C363.947,38.701 363.94,38.203 363.788,38.874C363.601,39.711 363.629,40.071 363.601,40.984C364.957,41.275 364.397,41.406 365.926,40.562C366.313,40.355 366.023,40.576 366.417,40.182C366.86,39.739 366.21,39.919 366.936,39.628C368.292,41.856 367.593,40.555 369.801,41.489C373.143,42.901 372.755,41.662 373.828,42.763C377.779,46.831 376.651,56.269 374.873,61.175C374.257,62.878 374.278,63.646 373.198,64.524L368.209,72.959C366.846,74.232 367.178,74.053 366.113,75.575C364.459,77.941 361.705,80.335 359.131,81.456C358.335,81.796 358.529,81.553 357.892,82.162C356.848,83.172 358.889,81.048 357.512,82.619C356.633,83.622 355.948,84.065 354.529,84.667C353.505,85.103 352.993,85.401 351.762,85.788C346.835,87.338 342.932,87.435 337.646,86.861C336.684,86.757 336.767,86.695 336.054,86.494L334.235,85.65C333.84,85.795 333.895,85.871 333.19,85.747C331.847,85.504 332.47,85.587 332.083,85.235C330.491,85.38 322.831,82.314 321.752,81.436C320.928,81.159 315.247,77.768 314.313,76.668C313.995,76.301 314.154,76.509 314.057,76.281L313.199,76.253L319.365,81C321.35,82.328 322.229,82.64 324.111,83.228L327.903,84.785C332.463,86.473 330.187,85.47 334.131,86.549C341.59,88.584 349.963,88.417 357.242,85.594C357.574,85.463 357.858,85.318 358.003,85.241C360.965,83.705 366.562,80.951 368.521,78.536C370.251,76.412 369.87,77.215 371.205,75.886L372.465,74.219L371.143,74.385L373.869,70.115C374.139,69.555 373.959,69.873 374.153,69.306C374.845,67.251 376.284,65.77 376.658,63.597C376.651,63.576 375.724,62.532 375.419,61.646C376.229,60.006 374.375,63.147 375.835,61.085C376.45,60.22 376.34,60.29 376.354,58.871C376.374,56.283 377.433,57.058 377.357,48.52C377.343,46.921 376.9,46.741 376.665,45.717C376.291,44.077 376.9,42.167 376.25,41.143L376.015,40.874C374.541,39.185 374.222,38.237 373.171,37.559C373.987,36.646 372.202,37.054 374.278,36.881C373.973,36.874 373.627,36.639 373.212,36.161C372.534,35.379 372.589,36.438 372.631,34.515C372.596,34.57 373.157,34.812 372.16,34.847L371.731,34.784C371.655,34.771 371.545,34.708 371.475,34.687C371.406,34.667 371.289,34.632 371.212,34.577C371.302,30.854 372.202,33.601 377.288,33.643L377.412,33.138C377.419,33.096 377.468,32.992 377.481,32.958C377.495,32.923 377.53,32.819 377.565,32.757C378.111,33.006 378.298,33.054 379.149,33.082C379.308,33.67 378.858,33.601 379.44,34.12C379.889,34.515 379.696,33.65 380.471,35.054L381.301,34.21C381.363,34.265 381.419,34.286 381.453,34.404C381.481,34.535 381.702,34.722 381.758,34.777C381.806,34.826 381.868,34.895 381.917,34.944C381.972,34.992 382.035,35.047 382.09,35.096C382.145,35.137 382.207,35.179 382.263,35.22L383.197,35.719C384.456,36.258 384.657,35.096 386.678,36.639C388.414,37.96 388.663,37.089 390.774,38.196C392.829,39.275 390.559,39.206 392.739,39.6C393.016,38.459 392.22,38.908 393.348,38.486C392.642,37.566 391.161,38.846 390.4,35.975C392.372,35.31 393.521,36.314 394.663,35.414C394.241,34.826 393.625,34.805 393.32,34.487C389.736,35.006 392.213,34.369 388.726,33.913C388.677,33.975 388.608,34.002 388.587,34.12L387.978,34.798C387.778,34.362 387.619,34.21 387.778,33.567C388.248,31.698 388.684,33.836 388.151,32.868L384.823,31.85L383.986,32.065C384.816,32.715 385.038,32.598 385.39,33.497C383.702,33.414 382.007,32.965 380.803,31.691C380.076,31.719 376.367,30.19 373.205,30.418C370.306,30.619 367.718,28.162 366.908,28.155L365.04,27.194C365.324,28.079 365.151,27.823 365.995,28.287C367.517,29.131 369.019,29.795 369.635,31.442L364.293,30.01C363.642,29.712 363.947,29.858 363.573,29.387C363.075,29.207 363.096,29.283 362.611,28.882C361.989,28.363 361.359,27.235 359.719,27.041L359.145,27.041C360.107,28.169 359.975,27.138 360.259,28.993L358.031,28.439C358.529,28.847 358.474,29.249 358.591,30.114C356.917,29.934 357.588,30.57 356.917,29.276C355.754,31.463 353.879,29.643 353.872,29.636L352.115,28.868C351.513,28.557 351.001,28.356 350.149,28.294C350.156,29.097 351.056,31.809 349.305,31.927C348.233,31.996 349.146,32.107 348.544,31.408C348.468,31.463 348.205,31.678 348.15,31.712C348.108,31.74 347.887,31.885 347.43,32.044L345.23,30.903C343.832,29.519 344.136,29.519 343.936,28.716C343.922,28.633 343.908,28.557 343.887,28.474C343.5,26.986 343.514,27.685 343.105,26.765C343.479,25.92 343.943,26.689 343.59,25.125C343.202,23.381 343.437,25.229 342.815,24.101C343.527,23.762 343.534,23.81 344.192,23.25C344.884,22.668 344.15,23.187 344.787,22.744C347.478,20.876 346.697,23.111 347.707,21.146C349.091,21.264 348.939,21.361 349.9,20.897C351.167,20.288 350.565,20.876 351.485,20.523C351.25,18.482 350.461,19.444 351.208,17.409C352.198,17.866 352.502,18.268 352.647,19.651L353.146,18.703C353.173,18.62 353.152,18.295 353.291,17.901C354.737,18.081 354.114,18.434 355.339,17.998L356.951,17.437C358.605,16.925 357.283,16.655 358.612,16.551C360.086,16.434 358.508,17.686 359.837,16.6C360.39,15.866 361.532,15.32 362.445,15.645L363.587,16.192C363.649,16.219 363.719,16.254 363.781,16.282L365.414,16.468C368.147,16.06 367.434,16.745 368.957,17.043C370.064,17.25 370.963,16.496 371.987,16.925C372.396,16.42 372.333,17.008 372.541,15.707C373.793,15.839 372.942,16.295 374.209,15.88C373.226,14.579 372.043,15.022 371.109,14.704L369.476,13.929L370.687,13.029C370.05,12.151 370.237,12.891 370.202,11.895L369.213,13.071C368.881,14.095 369.005,13.541 369.116,14.538C368.258,14.275 367.78,13.922 367.718,13.874C366.521,12.884 365.379,12.773 364.189,12.621C363.283,12.504 362.584,12.012 361.615,12.531C360.743,13.002 360.487,13.403 359.705,13.645C360.584,14.164 360.245,14.261 360.259,15.597C359.276,15.597 358.058,15.313 357.692,15.396L356.785,15.804C355.581,16.434 355.339,16.538 353.948,15.936C352.883,15.479 354.744,15.687 353.222,15.783C352.163,15.846 351.589,16.385 350.599,16.877L348.821,17.61C346.503,18.593 346.157,18.399 345.569,19.299C345.271,19.229 344.953,19.084 344.863,19.049C344.794,19.029 344.718,19.001 344.641,18.973L343.521,18.641Z" style="fill:rgb(19,12,10);"/>
            <path d="M354.619,64.455C353.014,65.023 354.087,64.421 353.644,65.23C353.526,65.452 353.665,65.313 353.277,65.846L353.478,68.51C351.319,68.635 353.761,68.123 351.215,67.867L350.814,69.873C350.814,69.839 350.807,69.991 350.779,70.039C350.371,69.762 349.444,68.787 349.105,68.392L346.62,69.832C344.33,70.697 345.839,70.627 344.289,70.669C342.178,70.731 343.659,70.51 342.69,71.146C340.58,72.544 340.829,71.389 338.94,71.804C337.95,72.018 338.054,72.281 337.189,72.254C336.615,72.226 336.331,71.831 335.425,72.385C334.677,72.191 335.183,71.921 334.311,71.568C334.269,71.638 334.235,71.741 334.207,71.797C333.591,72.939 334.055,72.51 333.473,72.772C333.28,72.606 332.844,72.122 332.83,72.108C332.795,72.087 332.726,72.039 332.691,72.025L332.249,71.859C332.214,71.838 332.131,71.811 332.103,71.79C332.069,71.769 332,71.728 331.972,71.7C331.391,71.209 331.854,71.167 331.245,70.627C330.65,71.721 331.439,71.077 330.422,71.984C329.688,72.24 329.003,71.395 328.45,70.351C327.73,71.568 328.789,71.181 327.626,71.617L327.606,69.548C324.409,70.115 326.554,72.157 324.582,71.333C324.547,71.319 324.464,71.285 324.43,71.271C324.402,71.257 324.319,71.216 324.291,71.195C323.689,70.738 324.084,71.188 324.042,69.728C321.6,70.752 321.876,68.503 321.496,67.915C321.094,67.59 320.935,68.164 321.081,67.389C320.229,69.071 320.015,68.434 319.157,68.904C319.358,69.769 319.413,69.077 319.524,70.344C320.34,70.039 320.195,69.949 321.254,70.039C321.641,70.89 321.288,70.517 321.475,71.015C322.146,70.738 321.606,70.641 322.554,70.8C323.772,71.008 323.094,71.015 323.364,71.25C323.274,71.908 323.523,71.389 322.79,71.963L321.932,72.475C321.219,72.897 320.714,73.25 320.077,73.534L318.963,73.077C318.929,72.98 318.818,73.022 318.742,72.994C318.486,72.101 318.735,71.707 318.749,71.679L317.642,71.492C317.642,72.883 317.78,72.593 317.455,73.817C316.154,73.333 317.448,74.066 316.894,73.333C316.507,72.821 317.053,71.908 315.144,71.721C315.095,72.724 316.009,73.81 314.978,74.648C314.071,75.381 314.908,74.959 314.313,74.731C315.69,74.862 315.047,75.056 315.441,75.817C316.528,74.8 317.538,76.018 318.327,76.135L320.209,76.301L320.229,79.408C319.524,79.346 319.849,79.173 320.098,79.561C320.665,80.439 321.316,80.252 321.752,81.436C322.831,82.314 330.491,85.38 332.083,85.235C332.332,85.186 333.003,85.103 333.1,85.068C334.497,84.674 332.103,84.937 336.283,84.127C338.85,83.622 338.933,84.404 341.064,84.3C340.96,82.743 340.511,82.889 339.742,81.692C340.234,81.159 340.324,80.979 341.286,80.744L341.846,82.045C342.932,82.141 343.763,81.906 344.911,81.955C347.043,82.038 344.718,83.166 347.43,82.882C348.094,81.913 347.575,82.038 347.984,81.27C349.852,81.948 350.094,81.36 350.98,80.882C351.423,80.64 353.858,80.813 357.076,79.595C358.543,79.042 358.377,78.647 359.027,77.402L360.252,77.492C360.888,77.319 360.674,77.236 360.861,77.056C362.66,75.333 361.74,76.896 362.231,75.464C362.48,74.745 361.906,75.208 364.065,73.568L364.736,73.16C365.504,72.627 365.345,72.537 365.926,71.472C366.424,70.558 366.41,70.994 366.514,69.673C365.615,69.299 365.877,69.576 366.071,68.545C366.417,66.759 368.348,66.275 367.337,64.594C364.473,64.158 368.541,64.753 365.324,64.919L364.196,65.05C365.165,65.763 363.234,64.061 362.902,63.915C361.262,63.196 361.809,64.268 360.667,64.607C361.055,63.812 361.096,63.846 360.992,62.649C361.823,63.127 360.432,63.189 362.494,63.127C363.276,62.282 362.674,61.971 364.189,61.895C363.781,63.057 364.148,61.867 363.677,62.615C363.366,63.113 363.255,62.504 363.4,63.3C363.705,64.974 365.815,63.037 368.348,63.03C367.912,60.317 368.5,61.369 368.804,59.231C366.334,57.979 367.102,56.456 366.68,55.764C365.061,55.75 364.715,56.505 364.57,57.591C364.404,57.515 363.871,57.044 363.179,57.46C363.303,58.809 363.698,58.712 364.023,59.695C363.407,60.345 363.58,59.999 362.895,60.573C361.234,61.957 363.165,61.099 361.096,61.881C359.788,62.372 360.383,62.635 359.982,63.59C358.176,63.659 358.342,63.777 357.802,64.483C357.235,65.223 357.131,65.417 357.083,66.573C356.031,66.739 354.64,67.756 354.28,66.393C354.896,66.033 355.858,66.247 355.989,65.95C356.045,65.839 356.169,65.888 356.246,65.832C356.086,65.472 356.993,65.922 355.768,65.362C355.72,65.341 355.637,65.313 355.588,65.299C355.491,65.272 354.882,65.445 354.772,65.465L354.619,64.455Z" style="fill:rgb(247,110,3);"/>
            <path d="M372.465,74.219C373.005,73.921 372.873,74.004 373.309,73.319L375.973,69.333C375.828,67.86 376.831,66.746 377.447,65.417C378.077,64.068 377.682,64.241 378.803,62.276C380.111,59.985 378.492,61.314 380.713,58.055C381.336,57.148 381.668,55.232 381.751,54.111L383.432,53.993C383.515,53.093 383.564,53.626 383.266,52.837C383.038,52.242 382.401,52.616 383.017,52.561C383.017,51.087 382.823,50.533 382.789,49.371L384.346,49.198C384.339,48.063 384.38,48.291 384.595,47.447L384.768,45.427L386.996,47.35L386.082,47.821C388.636,48.886 388.366,47.419 390.123,47.267C390.539,47.378 391.279,49.087 393.749,49.025C395.016,47.343 392.781,48.43 395.14,47.454C394.497,46.769 394.621,46.464 392.614,46.035C393.189,47.329 391.75,45.025 392.891,46.333C392.926,46.381 393.12,46.582 393.168,46.644C393.618,47.226 393.299,45.883 393.645,47.412C392.559,47.925 393.092,47.807 392.289,47.226C391.666,46.776 391.41,46.485 391.154,46.022C391.957,44.672 391.556,45.897 392.635,44.901C391.376,43.247 390.047,43.434 389.694,42.479L389.729,41.925C389.743,41.891 389.805,41.815 389.833,41.787C390.04,41.531 390.158,41.572 390.4,41.552C389.023,40.265 390.324,40.278 390.4,40.161C392.31,40.95 391.708,41.316 392.559,41.69C393.957,42.292 393.957,40.977 393.742,40.251C393.244,39.6 393.715,40.002 392.739,39.6C390.559,39.206 392.829,39.275 390.774,38.196C388.663,37.089 388.414,37.96 386.678,36.639C384.657,35.096 384.456,36.258 383.197,35.719L382.263,35.22C382.207,35.179 382.145,35.137 382.09,35.096C382.035,35.047 381.972,34.992 381.917,34.944C381.868,34.895 381.806,34.826 381.758,34.777C381.702,34.722 381.481,34.535 381.453,34.404C381.419,34.286 381.363,34.265 381.301,34.21L380.471,35.054C379.696,33.65 379.889,34.515 379.44,34.12C378.858,33.601 379.308,33.67 379.149,33.082C378.298,33.054 378.111,33.006 377.565,32.757C377.53,32.819 377.495,32.923 377.481,32.958C377.468,32.992 377.419,33.096 377.412,33.138L377.288,33.643C372.202,33.601 371.302,30.854 371.212,34.577C371.289,34.632 371.406,34.667 371.475,34.687C371.545,34.708 371.655,34.771 371.731,34.784L372.16,34.847C373.157,34.812 372.596,34.57 372.631,34.515C372.589,36.438 372.534,35.379 373.212,36.161C373.627,36.639 373.973,36.874 374.278,36.881C372.202,37.054 373.987,36.646 373.171,37.559C374.222,38.237 374.541,39.185 376.015,40.874L376.25,41.143C376.9,42.167 376.291,44.077 376.665,45.717C376.9,46.741 377.343,46.921 377.357,48.52C377.433,57.058 376.374,56.283 376.354,58.871C376.34,60.29 376.45,60.22 375.835,61.085C374.375,63.147 376.229,60.006 375.419,61.646C375.724,62.532 376.651,63.576 376.658,63.597C376.284,65.77 374.845,67.251 374.153,69.306C373.959,69.873 374.139,69.555 373.869,70.115L371.143,74.385L372.465,74.219Z" style="fill:rgb(5,1,1);"/>
            <path d="M299.132,79.567C298.724,77.768 297.312,77.921 296.641,77.9C296.835,74.911 295.098,76.931 295.119,73.125C295.132,71.409 294.856,73.063 295.61,71.638L293.361,70.856L293.582,69.79C293.569,69.285 293.209,67.7 293.361,66.808C293.382,66.676 293.548,65.486 294.288,65.549C294.323,65.549 294.399,65.583 294.44,65.59C294.489,65.597 294.565,65.645 294.613,65.652C294.662,65.666 294.745,65.708 294.8,65.715C295.561,65.853 294.856,66.005 295.935,65.673C296.246,64.656 296.094,65.161 295.831,64.158C295.319,63.86 295.257,64.172 294.71,63.881L295.693,62.656C296.419,62.02 296.198,62.449 297.063,61.853C297.111,61.77 297.146,61.542 297.16,61.584C297.174,61.625 297.229,61.397 297.243,61.328L297.783,59.978C297.817,59.937 297.879,59.888 297.914,59.84C298.509,59.023 298.336,59.362 298.488,57.868C299.782,57.37 300.094,56.941 301.263,57.377C301.277,56.173 301.395,54.706 302.619,54.38C303.872,54.041 303.436,54.083 304.01,55.169L304.197,55.598C304.218,55.681 304.245,55.75 304.259,55.834C304.522,57.19 303.692,57.141 302.972,59.805C302.64,61.023 302.709,62.366 302.682,63.881C302.308,64.165 302.522,64.04 301.976,64.261L299.409,64.96C299.478,65.95 301.104,68.731 301.54,69.617C302.419,71.409 302.156,72.606 302.287,73.907C302.446,75.506 303.941,79.415 303.339,80.066C303.277,80.1 303.173,80.066 303.138,80.149C303.104,80.225 302.986,80.211 302.938,80.218L302.017,80.163C301.332,79.893 301.242,79.381 301.042,79.014C299.609,79.159 300.004,79.886 299.132,79.567ZM311.262,45.565L311.276,47.565C310.196,47.094 310.916,46.817 310.037,46.208L309.186,49.433C309.02,49.385 307.816,49.004 307.698,48.907C307.138,48.45 307.297,47.828 306.965,47.357C305.117,49.087 306.473,49.191 303.055,50.298C302.19,52.173 303.83,49.523 302.1,51.993C301.491,52.865 301.651,53.342 300.737,54.034C299.263,55.148 298.765,55.418 297.644,57.439C297.354,60.269 297.935,58.518 295.956,61.224C294.856,62.725 293.956,62.995 293.195,64.794C292.634,66.116 292.766,65.638 291.562,66.393C291.624,66.434 291.728,66.413 291.756,66.51C291.776,66.6 291.901,66.6 291.936,66.628C292.821,67.479 292.171,66.621 292.773,69.119C292.794,69.188 292.821,69.264 292.835,69.327L292.994,70.012C293.126,71.188 292.821,70.524 293.423,71.935L294.115,74.018C295.229,76.018 294.966,76.495 296.551,78.184C297.34,79.021 296.987,79.021 297.997,79.325C298.232,79.394 299.028,79.54 299.132,79.567C299.077,82.342 301.907,83.034 302.82,83.934L303.989,85.082C305.38,85.442 304.806,85.38 305.941,85.013C306.003,84.992 306.072,84.958 306.134,84.937L307.449,84.252C306.349,83.608 306.217,83.463 304.522,83.38C304.896,82.847 304.647,83.269 304.882,82.93C304.91,82.896 304.965,82.82 305,82.778L306.128,80.903C304.785,80.197 304.827,78.786 306.128,78.107C305.934,76.225 305.242,76.08 305.401,74.039C305.553,74.599 305.629,75.187 306.038,75.616C306.224,75.81 306.335,75.831 306.563,75.907C307.034,76.073 306.633,76.045 307.546,76.149C307.138,74.565 307.719,74.489 307.013,73.091C306.937,72.939 306.619,72.426 306.487,72.177L305.975,69.915C304.695,69.327 302.661,67.714 303.616,66.171C304.328,66.441 304.619,66.919 305.11,67.417C305.449,67.749 305.484,67.735 305.837,68.102C306.245,68.524 306.204,68.365 306.19,68.621C306.183,67.209 304.342,63.95 305.297,61.182C305.892,59.445 306.3,60.428 306.813,58.29C307.228,56.567 307.823,55.577 309.221,55.155C312.147,54.284 310.196,53.986 312.583,53.612C313.967,53.391 312.452,53.751 313.836,53.405C316.444,52.747 317.399,52.561 319.358,53.391L320.914,53.889L320.728,52.367L320.195,50.609C320.063,49.973 319.973,49.613 319.904,48.949C317.552,48.824 317.607,48.554 315.926,48.021C315.683,49.011 315.753,49.108 314.839,49.281C314.805,49.288 313.192,49.44 312.722,49.454C312.66,47.738 313.559,46.554 314.099,45.254C312.355,45.309 313.476,45.69 312.826,44.686L312.992,44.319C312.092,45.018 312.736,45.06 312.576,47.191C311.248,46.34 312.307,45.717 311.262,45.565Z" style="fill:rgb(35,12,10);"/>
            <path d="M355.872,54.941L355.381,55.017C355.311,57.114 352.232,61.328 350.931,62.635C346.032,67.569 339.708,69.368 332.74,67.375C332.027,67.175 329.156,65.922 328.526,65.472C327.246,64.559 326.519,63.957 325.329,63.037C324.533,62.878 324.305,62.961 323.191,61.584L321.731,59.971C319.932,57.972 320.015,60.656 317.379,58.498C316.361,57.667 318.029,58.255 316.631,58.013L314.14,59.106C313.621,59.459 313.075,59.75 312.21,59.812C310.916,59.895 311.781,59.681 311.179,59.764C309.885,59.951 311.725,59.466 310.265,60.276C310.148,60.338 310.369,60.47 309.449,60.532L308.805,63.597L308.086,63.846C307.567,63.985 307.864,63.86 307.802,63.881L309.193,71.568C309.989,72.51 310.418,73.07 311.193,73.88C312.085,74.821 312.867,74.966 313.199,76.253L314.057,76.281C313.801,74.994 314.597,76.253 313.4,74.987C312.507,74.046 312.95,75.049 312.41,74.094C311.386,73.478 311.103,72.648 310.584,71.499L310.418,71.119C310.39,71.056 310.355,70.98 310.328,70.918C309.525,68.967 310.162,69.673 310.072,68.33C309.947,66.545 308.916,67.341 309.947,65.452L310.777,63.992C311.359,63.127 311.234,64.552 311.428,62.753C312.244,63.514 312.064,63.182 312.549,64.434C313.123,64.4 313.455,64.469 313.94,64.13C313.947,65.286 315.144,65.777 316.015,65.971C317.033,66.199 315.116,66.247 317.392,66.261C317.669,65.209 318.652,64.649 317.801,63.32L318.472,62.635C318.929,62.352 318.181,62.331 319.302,62.705C319.102,62.808 318.936,63.092 319.129,63.576C319.704,65.009 319.897,64.151 320.077,64.199L322.042,65.334C324.132,66.13 322.423,64.345 325.281,66.739C326.319,67.604 325.627,66.676 326.097,67.673C326.568,67.389 326.194,67.258 326.914,67.368L327.91,67.666C330.401,67.95 328.194,66.815 332.09,68.206C332.173,68.24 332.435,68.316 332.519,68.351C332.858,68.475 333.141,68.593 333.148,68.6C335.75,69.631 334.096,67.839 336.082,68.676L339.881,69.285C345.029,69.264 341.521,68.337 344.635,68.78C344.745,67.265 344.759,68.04 345.195,67.507C346.565,67.507 346.378,67.638 347.409,67.119L347.762,66.925C350.087,65.659 350.911,64.774 351.568,64.116L354.087,61.625C355.727,58.276 355.581,60.788 356.432,58.92C356.474,58.85 356.502,58.65 356.508,58.691C356.564,58.878 356.46,57.854 357.394,56.56L358.999,54.83C360.612,53.993 359.352,55.114 360.266,53.654C362.805,53.446 361.892,52.934 362.494,54.138L364.251,53.654C364.618,53.46 364.611,53.439 364.826,53.273C364.722,52.27 364.279,52.734 364.528,51.82C364.549,51.751 364.777,51.287 364.819,51.045L364.826,50.713C364.743,49.288 364.819,50.512 364.729,50.485C365.967,50.339 365.781,50.575 366.659,49.938C367.178,50.547 367.164,50.817 367.801,51.315C369.642,52.754 368.735,51.107 369.316,54.332C369.441,55.024 369.316,54.387 369.489,55.003C369.856,56.242 369.856,55.868 369.745,57.453C370.59,57.764 369.953,57.259 370.389,58.041C370.52,58.283 370.541,58.608 370.59,58.857C371.067,58.145 370.68,58.29 371.745,58.214C371.932,60.193 371.621,61.75 372.347,63.134C372.34,62.033 372.707,60.933 372.866,59.819C373.046,58.615 372.707,57.709 372.61,56.352L373.406,56.505C373.316,56.539 373.247,56.311 373.219,56.359L371.953,51.966C371.531,49.509 369.579,51.917 369.476,48.81C367.801,48.63 368.209,47.689 367.144,47.516C366.694,47.44 364.75,47.682 363.629,47.537C362.798,47.433 363.207,47.267 362.272,47.585C361.269,47.925 362.494,47.468 361.705,47.835C358.806,49.17 360.459,49.357 358.591,49.371C358.591,50.623 358.674,50.609 358.231,51.467C357.616,52.657 358.135,51.052 357.643,52.997L357.373,53.875C357.353,53.965 357.187,54.643 357.117,54.796C357.02,55.017 357.221,55.827 356.246,55.328L355.872,54.941Z" style="fill:rgb(207,50,5);"/>
            <path d="M312.41,74.094C311.552,73.326 311.089,71.977 310.819,70.87C310.487,69.479 310.127,67.832 310.072,66.144C317.579,66.469 315.317,65.839 316.175,68.434L317.434,66.621C317.469,66.559 317.496,66.483 317.531,66.42L317.918,65.749C318.167,66.254 318.167,66.268 318.34,66.912C318.465,66.24 317.842,65.791 321.371,65.991L321.496,67.915C321.876,68.503 321.6,70.752 324.042,69.728C324.084,71.188 323.689,70.738 324.291,71.195C324.319,71.216 324.402,71.257 324.43,71.271C324.464,71.285 324.547,71.319 324.582,71.333C326.554,72.157 324.409,70.115 327.606,69.548L327.626,71.617C328.789,71.181 327.73,71.568 328.45,70.351C329.003,71.395 329.688,72.24 330.422,71.984C331.439,71.077 330.65,71.721 331.245,70.627C331.854,71.167 331.391,71.209 331.972,71.7C332,71.728 332.069,71.769 332.103,71.79C332.131,71.811 332.214,71.838 332.249,71.859L332.691,72.025C332.726,72.039 332.795,72.087 332.83,72.108C332.844,72.122 333.28,72.606 333.473,72.772C334.055,72.51 333.591,72.939 334.207,71.797C334.235,71.741 334.269,71.638 334.311,71.568C335.183,71.921 334.677,72.191 335.425,72.385C336.331,71.831 336.615,72.226 337.189,72.254C338.054,72.281 337.95,72.018 338.94,71.804C340.829,71.389 340.58,72.544 342.69,71.146C343.659,70.51 342.178,70.731 344.289,70.669C345.839,70.627 344.33,70.697 346.62,69.832L349.105,68.392C349.444,68.787 350.371,69.762 350.779,70.039C350.807,69.991 350.814,69.839 350.814,69.873L351.215,67.867C353.761,68.123 351.319,68.635 353.478,68.51L353.277,65.846C353.665,65.313 353.526,65.452 353.644,65.23C354.087,64.421 353.014,65.023 354.619,64.455L356.246,64.607C356.197,63.293 355.969,64.123 356.073,62.76C356.668,62.469 356.197,62.767 356.744,62.511C356.806,62.476 356.993,62.372 357.062,62.345L357.629,62.103C359.062,61.542 358.543,61.764 359.152,60.739L360.826,60.809C360.183,60.207 360.722,60.663 360.48,59.964C359.761,57.902 360.28,58.207 360.695,56.256C362.044,56.034 362.584,56.449 363.615,56.103C363.954,52.436 365.206,54.187 366.493,53.716L366.535,51.502C367.683,51.876 366.812,51.191 367.552,52.145L368.95,55.91C369.012,56.567 368.867,56.615 368.687,57.377L369.745,57.453C369.856,55.868 369.856,56.242 369.489,55.003C369.316,54.387 369.441,55.024 369.316,54.332C368.735,51.107 369.642,52.754 367.801,51.315C367.164,50.817 367.178,50.547 366.659,49.938C365.781,50.575 365.967,50.339 364.729,50.485C364.819,50.512 364.743,49.288 364.826,50.713L364.819,51.045C364.777,51.287 364.549,51.751 364.528,51.82C364.279,52.734 364.722,52.27 364.826,53.273C364.611,53.439 364.618,53.46 364.251,53.654L362.494,54.138C361.892,52.934 362.805,53.446 360.266,53.654C359.352,55.114 360.612,53.993 358.999,54.83L357.394,56.56C356.46,57.854 356.564,58.878 356.508,58.691C356.502,58.65 356.474,58.85 356.432,58.92C355.581,60.788 355.727,58.276 354.087,61.625L351.568,64.116C350.911,64.774 350.087,65.659 347.762,66.925L347.409,67.119C346.378,67.638 346.565,67.507 345.195,67.507C344.759,68.04 344.745,67.265 344.635,68.78C341.521,68.337 345.029,69.264 339.881,69.285L336.082,68.676C334.096,67.839 335.75,69.631 333.148,68.6C333.141,68.593 332.858,68.475 332.519,68.351C332.435,68.316 332.173,68.24 332.09,68.206C328.194,66.815 330.401,67.95 327.91,67.666L326.914,67.368C326.194,67.258 326.568,67.389 326.097,67.673C325.627,66.676 326.319,67.604 325.281,66.739C322.423,64.345 324.132,66.13 322.042,65.334L320.077,64.199C319.897,64.151 319.704,65.009 319.129,63.576C318.936,63.092 319.102,62.808 319.302,62.705C318.181,62.331 318.929,62.352 318.472,62.635L317.801,63.32C318.652,64.649 317.669,65.209 317.392,66.261C315.116,66.247 317.033,66.199 316.015,65.971C315.144,65.777 313.947,65.286 313.94,64.13C313.455,64.469 313.123,64.4 312.549,64.434C312.064,63.182 312.244,63.514 311.428,62.753C311.234,64.552 311.359,63.127 310.777,63.992L309.947,65.452C308.916,67.341 309.947,66.545 310.072,68.33C310.162,69.673 309.525,68.967 310.328,70.918C310.355,70.98 310.39,71.056 310.418,71.119L310.584,71.499C311.103,72.648 311.386,73.478 312.41,74.094Z" style="fill:rgb(212,79,8);"/>
            <path d="M366.514,69.673C366.41,70.994 366.424,70.558 365.926,71.472C365.345,72.537 365.504,72.627 364.736,73.16L364.065,73.568C361.906,75.208 362.48,74.745 362.231,75.464C361.74,76.896 362.66,75.333 360.861,77.056C360.674,77.236 360.888,77.319 360.252,77.492L359.027,77.402C358.377,78.647 358.543,79.042 357.076,79.595C353.858,80.813 351.423,80.64 350.98,80.882C350.094,81.36 349.852,81.948 347.984,81.27C347.575,82.038 348.094,81.913 347.43,82.882C344.718,83.166 347.043,82.038 344.911,81.955C343.763,81.906 342.932,82.141 341.846,82.045L341.286,80.744C340.324,80.979 340.234,81.159 339.742,81.692C340.511,82.889 340.96,82.743 341.064,84.3C338.933,84.404 338.85,83.622 336.283,84.127C332.103,84.937 334.497,84.674 333.1,85.068C333.003,85.103 332.332,85.186 332.083,85.235C332.47,85.587 331.847,85.504 333.19,85.747C333.895,85.871 333.84,85.795 334.235,85.65C336.144,85.657 336.393,86.079 337.708,86.293C338.635,86.438 340.497,86.397 341.424,86.452C347.845,86.861 347.562,85.892 352.53,84.259C354.488,83.622 352.142,84.383 354.654,82.494C355.962,81.512 354.958,81.567 357.519,80.654C358.93,80.149 358.19,80.301 359.498,79.574C360.024,79.277 360.307,79.152 360.764,78.875C361.574,78.384 362.293,77.941 362.978,77.201C363.898,76.211 363.684,76.094 364.846,75.167C365.788,74.412 366.189,74.17 366.888,73.298C367.524,72.51 367.946,72.074 368.611,71.133C372.278,65.984 369.261,69.79 371.309,66.047L372.029,64.774C372.486,64.068 372.603,64.621 372.347,63.134C371.621,61.75 371.932,60.193 371.745,58.214C370.68,58.29 371.067,58.145 370.59,58.857C370.541,58.608 370.52,58.283 370.389,58.041C369.953,57.259 370.59,57.764 369.745,57.453C369.718,58.933 370.112,58.221 369.704,59.881C369.192,61.985 369.939,62.905 369.054,64.843C368.486,66.088 369.24,65.818 368.818,66.282C368.265,67.846 367.919,65.915 367.441,67.963C367.324,68.462 367.863,68.254 366.514,69.673Z" style="fill:rgb(212,79,8);"/>
            <path d="M355.872,54.941L356.246,55.328C357.221,55.827 357.02,55.017 357.117,54.796C357.187,54.643 357.353,53.965 357.373,53.875L357.643,52.997C358.135,51.052 357.616,52.657 358.231,51.467C358.674,50.609 358.591,50.623 358.591,49.371C360.459,49.357 358.806,49.17 361.705,47.835C362.494,47.468 361.269,47.925 362.272,47.585C363.207,47.267 362.798,47.433 363.629,47.537C364.75,47.682 366.694,47.44 367.144,47.516C368.209,47.689 367.801,48.63 369.476,48.81C369.579,51.917 371.531,49.509 371.953,51.966L373.219,56.359C373.247,56.311 373.316,56.539 373.406,56.505L372.61,56.352C372.707,57.709 373.046,58.615 372.866,59.819C372.707,60.933 372.34,62.033 372.347,63.134C372.603,64.621 372.486,64.068 372.029,64.774L371.309,66.047C369.261,69.79 372.278,65.984 368.611,71.133C367.946,72.074 367.524,72.51 366.888,73.298C366.189,74.17 365.788,74.412 364.846,75.167C363.684,76.094 363.898,76.211 362.978,77.201C362.293,77.941 361.574,78.384 360.764,78.875C360.307,79.152 360.024,79.277 359.498,79.574C358.19,80.301 358.93,80.149 357.519,80.654C354.958,81.567 355.962,81.512 354.654,82.494C352.142,84.383 354.488,83.622 352.53,84.259C347.562,85.892 347.845,86.861 341.424,86.452C340.497,86.397 338.635,86.438 337.708,86.293C336.393,86.079 336.144,85.657 334.235,85.65L336.054,86.494C336.767,86.695 336.684,86.757 337.646,86.861C342.932,87.435 346.835,87.338 351.762,85.788C352.993,85.401 353.505,85.103 354.529,84.667C355.948,84.065 356.633,83.622 357.512,82.619C358.889,81.048 356.848,83.172 357.892,82.162C358.529,81.553 358.335,81.796 359.131,81.456C361.705,80.335 364.459,77.941 366.113,75.575C367.178,74.053 366.846,74.232 368.209,72.959L373.198,64.524C374.471,58.352 374.077,64.4 375.122,55.827C375.502,52.727 374.022,49.468 373.849,47.496C372.956,47.447 373.115,47.53 372.451,47.246C371.856,46.997 371.994,46.977 371.918,46.935L369.13,45.523C369.054,45.489 368.797,45.406 368.714,45.378L364.334,44.852C362.861,45.316 364.487,45.198 362.771,45.994C360.273,47.156 361.407,45.613 357.491,47.696C357.325,51.536 357.29,49.364 356.792,51.557C356.259,53.91 356.937,53.308 355.872,54.941Z" style="fill:rgb(162,36,10);"/>
            <path d="M357.449,42.603L356.764,43.731C356.744,44.825 356.709,43.994 356.626,44.347C356.218,46.063 356.55,47.094 356.301,49.558C356.107,51.474 355.505,53.46 355.381,55.017L355.872,54.941C356.937,53.308 356.259,53.91 356.792,51.557C357.29,49.364 357.325,51.536 357.491,47.696C361.407,45.613 360.273,47.156 362.771,45.994C364.487,45.198 362.861,45.316 364.334,44.852L368.714,45.378C368.797,45.406 369.054,45.489 369.13,45.523L371.918,46.935C371.994,46.977 371.856,46.997 372.451,47.246C373.115,47.53 372.956,47.447 373.849,47.496C374.022,49.468 375.502,52.727 375.122,55.827C374.077,64.4 374.471,58.352 373.198,64.524C374.278,63.646 374.257,62.878 374.873,61.175C376.651,56.269 377.779,46.831 373.828,42.763C372.755,41.662 373.143,42.901 369.801,41.489C367.593,40.555 368.292,41.856 366.936,39.628C366.21,39.919 366.86,39.739 366.417,40.182C366.023,40.576 366.313,40.355 365.926,40.562C364.397,41.406 364.957,41.275 363.601,40.984C363.629,40.071 363.601,39.711 363.788,38.874C363.94,38.203 363.947,38.701 363.995,37.884C364.023,37.352 364.009,37.428 363.892,37.089C363.186,36.833 362.535,36.577 362.051,37.49C361.373,38.756 361.933,37.898 362.259,38.922C362.535,39.808 362.459,41.226 362.238,41.849C361.843,42.942 361.428,42.735 359.788,43.358C359.491,43.475 360.086,43.496 359.138,43.544C359.11,43.551 359.027,43.531 358.999,43.531C358.972,43.531 358.896,43.51 358.868,43.51L357.408,43.849L357.449,42.603Z" style="fill:rgb(81,18,14);"/>
            <path d="M312.41,74.094C312.95,75.049 312.507,74.046 313.4,74.987C314.597,76.253 313.801,74.994 314.057,76.281C314.154,76.509 313.995,76.301 314.313,76.668C315.247,77.768 320.928,81.159 321.752,81.436C321.316,80.252 320.665,80.439 320.098,79.561C319.849,79.173 319.524,79.346 320.229,79.408L320.209,76.301L318.327,76.135C317.538,76.018 316.528,74.8 315.441,75.817C315.047,75.056 315.69,74.862 314.313,74.731C314.908,74.959 314.071,75.381 314.978,74.648C316.009,73.81 315.095,72.724 315.144,71.721C317.053,71.908 316.507,72.821 316.894,73.333C317.448,74.066 316.154,73.333 317.455,73.817C317.78,72.593 317.642,72.883 317.642,71.492L318.749,71.679C318.735,71.707 318.486,72.101 318.742,72.994C318.818,73.022 318.929,72.98 318.963,73.077L320.077,73.534C320.714,73.25 321.219,72.897 321.932,72.475L322.79,71.963C323.523,71.389 323.274,71.908 323.364,71.25C323.094,71.015 323.772,71.008 322.554,70.8C321.606,70.641 322.146,70.738 321.475,71.015C321.288,70.517 321.641,70.89 321.254,70.039C320.195,69.949 320.34,70.039 319.524,70.344C319.413,69.077 319.358,69.769 319.157,68.904C320.015,68.434 320.229,69.071 321.081,67.389C320.935,68.164 321.094,67.59 321.496,67.915L321.371,65.991C317.842,65.791 318.465,66.24 318.34,66.912C318.167,66.268 318.167,66.254 317.918,65.749L317.531,66.42C317.496,66.483 317.469,66.559 317.434,66.621L316.175,68.434C315.317,65.839 317.579,66.469 310.072,66.144C310.127,67.832 310.487,69.479 310.819,70.87C311.089,71.977 311.552,73.326 312.41,74.094Z" style="fill:rgb(238,81,3);"/>
            <path d="M306.487,72.177C306.128,71.084 306.093,71.541 306.28,70.115C307.94,70.51 306.723,70.793 309.352,73.215C310.141,73.935 311.857,75.353 312.182,76.301L313.199,76.253C312.867,74.966 312.085,74.821 311.193,73.88C310.418,73.07 309.989,72.51 309.193,71.568C307.082,70.378 307.124,67.078 306.861,65.292C306.702,64.192 306.688,64.704 306.598,64.227C306.584,64.185 306.563,64.102 306.557,64.061L306.563,63.722C306.57,63.673 306.598,63.597 306.612,63.549C306.847,62.705 307.636,61.964 307.892,61.231C308.501,59.494 307.788,59.224 309.477,57.653C312.348,57.764 312.244,58.338 313.767,56.726C315.026,55.398 315.31,55.536 317.565,55.557C318.071,56.47 317.289,55.515 317.815,56.207C317.884,56.297 318.423,56.692 318.555,56.74C319.448,57.1 319.98,56.865 320.665,57.446C321.849,58.442 322.665,60.013 323.537,60.428C323.143,59.176 322.458,58.221 321.876,57.058C321.655,56.629 320.921,53.944 320.914,53.889L319.358,53.391C317.399,52.561 316.444,52.747 313.836,53.405C312.452,53.751 313.967,53.391 312.583,53.612C310.196,53.986 312.147,54.284 309.221,55.155C307.823,55.577 307.228,56.567 306.813,58.29C306.3,60.428 305.892,59.445 305.297,61.182C304.342,63.95 306.183,67.209 306.19,68.621C306.204,68.365 306.245,68.524 305.837,68.102C305.484,67.735 305.449,67.749 305.11,67.417C304.619,66.919 304.328,66.441 303.616,66.171C302.661,67.714 304.695,69.327 305.975,69.915L306.487,72.177Z" style="fill:rgb(81,18,14);"/>
            <path d="M344.503,41.988C345.403,41.088 345.479,40.638 347.084,40.936C349.741,41.427 349.762,42.071 349.838,43.953L346.593,43.994C346.531,43.932 346.475,43.842 346.434,43.794C345.5,42.756 346.081,43.136 343.534,42.908C343.984,42.057 343.597,42.901 344.503,41.988ZM346.634,38.41C345.202,38.556 342.967,38.985 341.791,39.593C341.154,39.919 341.784,39.787 340.981,39.946C340.171,40.099 339.327,39.766 336.49,40.714C335.473,41.06 336.691,40.784 335.653,41.033C334.401,41.33 334.241,40.874 333.058,41.655C332.74,44.285 334.345,42.915 336.082,43.669C337.826,44.43 338.781,44.216 340.829,44.167L340.843,40.5L342.593,41.15C342.642,41.178 342.718,41.233 342.78,41.275C342.005,42.306 342.656,41.399 341.721,42.112L341.735,43.627C344.026,43.385 343.002,43.531 346.095,44.126C348.357,44.562 349.368,43.946 351.056,44.015L351.893,45.454L352.896,45.399L351.672,43.69C351.167,42.811 351.381,42.41 351.36,41.247C352.246,40.694 351.789,41.206 352.336,40.341C354.626,40.5 352.343,40.666 354.121,40.86C355.754,39.33 356.114,38.908 356.398,40.645C357.048,39.87 356.951,41.87 356.834,39.538C356.82,39.282 356.875,38.659 355.886,38.659C354.405,38.652 355.512,39.033 355.519,39.047C355.512,37.22 354.903,37.476 353.568,37.372C352.979,38.078 353.028,36.32 353.007,38.763C352.924,38.722 352.696,38.728 352.62,38.722L351.686,38.659C350.53,38.5 350.35,37.829 348.855,39.088L348.544,39.365C347.942,37.995 348.696,38.265 346.634,38.41Z" style="fill:rgb(35,31,33);"/>
            <path d="M354.619,64.455L354.772,65.465C354.882,65.445 355.491,65.272 355.588,65.299C355.637,65.313 355.72,65.341 355.768,65.362C356.993,65.922 356.086,65.472 356.246,65.832C356.169,65.888 356.045,65.839 355.989,65.95C355.858,66.247 354.896,66.033 354.28,66.393C354.64,67.756 356.031,66.739 357.083,66.573C357.131,65.417 357.235,65.223 357.802,64.483C358.342,63.777 358.176,63.659 359.982,63.59C360.383,62.635 359.788,62.372 361.096,61.881C363.165,61.099 361.234,61.957 362.895,60.573C363.58,59.999 363.407,60.345 364.023,59.695C363.698,58.712 363.303,58.809 363.179,57.46C363.871,57.044 364.404,57.515 364.57,57.591C364.715,56.505 365.061,55.75 366.68,55.764C367.102,56.456 366.334,57.979 368.804,59.231C368.5,61.369 367.912,60.317 368.348,63.03C365.815,63.037 363.705,64.974 363.4,63.3C363.255,62.504 363.366,63.113 363.677,62.615C364.148,61.867 363.781,63.057 364.189,61.895C362.674,61.971 363.276,62.282 362.494,63.127C360.432,63.189 361.823,63.127 360.992,62.649C361.096,63.846 361.055,63.812 360.667,64.607C361.809,64.268 361.262,63.196 362.902,63.915C363.234,64.061 365.165,65.763 364.196,65.05L365.324,64.919C368.541,64.753 364.473,64.158 367.337,64.594C368.348,66.275 366.417,66.759 366.071,68.545C365.877,69.576 365.615,69.299 366.514,69.673C367.863,68.254 367.324,68.462 367.441,67.963C367.919,65.915 368.265,67.846 368.818,66.282C369.24,65.818 368.486,66.088 369.054,64.843C369.939,62.905 369.192,61.985 369.704,59.881C370.112,58.221 369.718,58.933 369.745,57.453L368.687,57.377C368.867,56.615 369.012,56.567 368.95,55.91L367.552,52.145C366.812,51.191 367.683,51.876 366.535,51.502L366.493,53.716C365.206,54.187 363.954,52.436 363.615,56.103C362.584,56.449 362.044,56.034 360.695,56.256C360.28,58.207 359.761,57.902 360.48,59.964C360.722,60.663 360.183,60.207 360.826,60.809L359.152,60.739C358.543,61.764 359.062,61.542 357.629,62.103L357.062,62.345C356.993,62.372 356.806,62.476 356.744,62.511C356.197,62.767 356.668,62.469 356.073,62.76C355.969,64.123 356.197,63.293 356.246,64.607L354.619,64.455Z" style="fill:rgb(238,81,3);"/>
            <path d="M309.193,71.568L307.802,63.881C307.864,63.86 307.567,63.985 308.086,63.846L308.805,63.597L309.449,60.532C310.369,60.47 310.148,60.338 310.265,60.276C311.725,59.466 309.885,59.951 311.179,59.764C311.781,59.681 310.916,59.895 312.21,59.812C313.075,59.75 313.621,59.459 314.14,59.106L316.631,58.013C318.029,58.255 316.361,57.667 317.379,58.498C320.015,60.656 319.932,57.972 321.731,59.971L323.191,61.584C324.305,62.961 324.533,62.878 325.329,63.037C324.859,62.047 324.104,61.099 323.537,60.428C322.665,60.013 321.849,58.442 320.665,57.446C319.98,56.865 319.448,57.1 318.555,56.74C318.423,56.692 317.884,56.297 317.815,56.207C317.289,55.515 318.071,56.47 317.565,55.557C315.31,55.536 315.026,55.398 313.767,56.726C312.244,58.338 312.348,57.764 309.477,57.653C307.788,59.224 308.501,59.494 307.892,61.231C307.636,61.964 306.847,62.705 306.612,63.549C306.598,63.597 306.57,63.673 306.563,63.722L306.557,64.061C306.563,64.102 306.584,64.185 306.598,64.227C306.688,64.704 306.702,64.192 306.861,65.292C307.124,67.078 307.082,70.378 309.193,71.568Z" style="fill:rgb(162,36,10);"/>
            <path d="M352.896,45.399C355.048,44.866 353.879,44.361 356.675,44.389L356.764,43.731L357.449,42.603C356.813,41.565 357.221,42.783 356.446,41.738C355.948,41.074 356.052,41.019 356.398,40.645C356.114,38.908 355.754,39.33 354.121,40.86C352.343,40.666 354.626,40.5 352.336,40.341C351.789,41.206 352.246,40.694 351.36,41.247C351.381,42.41 351.167,42.811 351.672,43.69L352.896,45.399Z" style="fill:rgb(88,85,87);"/>
            <path d="M343.534,42.908C346.081,43.136 345.5,42.756 346.434,43.794C346.475,43.842 346.531,43.932 346.593,43.994L349.838,43.953C349.762,42.071 349.741,41.427 347.084,40.936C345.479,40.638 345.403,41.088 344.503,41.988C343.597,42.901 343.984,42.057 343.534,42.908Z" style="fill:rgb(75,69,67);"/>
        </g>
    </g>
</svg>
